<?xml version="1.0" encoding="iso-8859-1"?>
<!-- Uploaded to: SVG Repo, www.svgrepo.com, Generator: SVG Repo Mixer Tools -->
<svg version="1.1" id="Layer_1" xmlns="http://www.w3.org/2000/svg" xmlns:xlink="http://www.w3.org/1999/xlink" 
	 viewBox="0 0 512 512" xml:space="preserve">
<polygon style="fill:#288FD9;" points="488.56,456.499 512,456.499 512,402.598 478.109,381.695 "/>
<polygon style="fill:#8BCBF1;" points="465.122,402.598 465.122,456.499 488.56,456.499 488.56,381.695 "/>
<polygon style="fill:#F7C02D;" points="395.055,0 197.528,0 176.624,271.665 197.528,512 395.055,512 "/>
<rect style="fill:#FBE27B;" width="197.53" height="511.996"/>
<g>
	<polygon style="fill:#F39624;" points="264.35,67.852 197.528,67.852 187.076,83.517 197.528,99.183 264.35,99.183 	"/>
	<polygon style="fill:#F39624;" points="325.241,121.753 197.528,121.753 187.076,137.419 197.528,153.084 325.241,153.084 	"/>
</g>
<polygon style="fill:#D9000C;" points="488.56,55.501 478.109,264.703 488.56,402.598 512,402.598 512,87.842 "/>
<polygon style="fill:#E43138;" points="488.56,55.501 465.122,87.842 465.122,402.598 488.56,402.598 "/>
<g>
	<rect x="130.701" y="67.852" style="fill:#F7C02D;" width="66.822" height="31.331"/>
	<rect x="69.814" y="121.751" style="fill:#F7C02D;" width="127.714" height="31.331"/>
</g>
<polygon style="fill:#F39624;" points="325.241,175.653 197.528,175.653 187.076,191.319 197.528,206.984 325.241,206.984 "/>
<rect x="69.814" y="175.65" style="fill:#F7C02D;" width="127.714" height="31.331"/>
<polygon style="fill:#F39624;" points="325.241,229.555 197.528,229.555 187.076,245.22 197.528,260.885 325.241,260.885 "/>
<rect x="69.814" y="229.56" style="fill:#F7C02D;" width="127.714" height="31.331"/>
<polygon style="fill:#F39624;" points="325.241,358.916 197.528,358.916 187.076,374.581 197.528,390.247 325.241,390.247 "/>
<rect x="69.814" y="358.914" style="fill:#F7C02D;" width="127.714" height="31.331"/>
<polygon style="fill:#F39624;" points="325.241,412.816 197.528,412.816 187.076,428.482 197.528,444.147 325.241,444.147 "/>
<rect x="69.814" y="412.813" style="fill:#F7C02D;" width="127.714" height="31.331"/>
</svg>