<?xml version="1.0" encoding="UTF-8"?>
<svg width="700pt" height="700pt" version="1.1" viewBox="0 0 700 700" xmlns="http://www.w3.org/2000/svg" xmlns:xlink="http://www.w3.org/1999/xlink">
 <defs>
  <symbol id="s" overflow="visible">
   <path d="m17.047-1.0156c-0.875 0.46094-1.793 0.80469-2.75 1.0312-0.94922 0.22656-1.9375 0.34375-2.9688 0.34375-3.0938 0-5.5469-0.86328-7.3594-2.5938-1.8047-1.7266-2.7031-4.0703-2.7031-7.0312 0-2.957 0.89844-5.3008 2.7031-7.0312 1.8125-1.7266 4.2656-2.5938 7.3594-2.5938 1.0312 0 2.0195 0.12109 2.9688 0.35938 0.95703 0.23047 1.875 0.57031 2.75 1.0156v3.8438c-0.88672-0.60156-1.7617-1.0469-2.625-1.3281-0.85547-0.28125-1.7617-0.42188-2.7188-0.42188-1.7109 0-3.0547 0.54688-4.0312 1.6406-0.96875 1.0938-1.4531 2.6016-1.4531 4.5156 0 1.918 0.48438 3.4219 1.4531 4.5156 0.97656 1.0938 2.3203 1.6406 4.0312 1.6406 0.95703 0 1.8633-0.14062 2.7188-0.42188 0.86328-0.28125 1.7383-0.72266 2.625-1.3281z"/>
  </symbol>
  <symbol id="b" overflow="visible">
   <path d="m12.484-10.125c-0.39844-0.1875-0.78906-0.32031-1.1719-0.40625-0.38672-0.082031-0.77344-0.125-1.1562-0.125-1.1484 0-2.0273 0.36719-2.6406 1.0938-0.61719 0.73047-0.92188 1.7812-0.92188 3.1562v6.4062h-4.4531v-13.922h4.4531v2.2812c0.5625-0.90625 1.2109-1.5664 1.9531-1.9844 0.75-0.41406 1.6406-0.625 2.6719-0.625 0.15625 0 0.31641 0.007812 0.48438 0.015625 0.17578 0.011719 0.42969 0.039063 0.76562 0.078125z"/>
  </symbol>
  <symbol id="a" overflow="visible">
   <path d="m16.031-7v1.2656h-10.406c0.11328 1.0547 0.49219 1.8398 1.1406 2.3594 0.64453 0.52344 1.5469 0.78125 2.7031 0.78125 0.9375 0 1.8945-0.14062 2.875-0.42188 0.97656-0.28125 1.9883-0.70312 3.0312-1.2656v3.4375c-1.0547 0.39844-2.1055 0.69531-3.1562 0.89062-1.0547 0.20703-2.1055 0.3125-3.1562 0.3125-2.5234 0-4.4805-0.64062-5.875-1.9219-1.3984-1.2812-2.0938-3.0781-2.0938-5.3906 0-2.2695 0.67969-4.0508 2.0469-5.3438 1.375-1.3008 3.2656-1.9531 5.6719-1.9531 2.1875 0 3.9375 0.66406 5.25 1.9844 1.3125 1.3125 1.9688 3.0703 1.9688 5.2656zm-4.5781-1.4688c0-0.85156-0.24609-1.5352-0.73438-2.0469-0.49219-0.51953-1.1367-0.78125-1.9375-0.78125-0.85547 0-1.5547 0.24609-2.0938 0.73438-0.54297 0.48047-0.875 1.1797-1 2.0938z"/>
  </symbol>
  <symbol id="f" overflow="visible">
   <path d="m8.375-6.2656c-0.92969 0-1.625 0.16406-2.0938 0.48438-0.46875 0.3125-0.70312 0.77344-0.70312 1.375 0 0.57422 0.1875 1.0234 0.5625 1.3438 0.38281 0.3125 0.91016 0.46875 1.5781 0.46875 0.83203 0 1.5352-0.30078 2.1094-0.90625 0.57031-0.60156 0.85938-1.3516 0.85938-2.25v-0.51562zm6.7969-1.6719v7.9375h-4.4844v-2.0625c-0.59375 0.84375-1.2656 1.4609-2.0156 1.8438-0.74219 0.38281-1.6484 0.57812-2.7188 0.57812-1.4375 0-2.6094-0.41406-3.5156-1.25-0.89844-0.84375-1.3438-1.9375-1.3438-3.2812 0-1.6328 0.5625-2.832 1.6875-3.5938 1.125-0.75781 2.8828-1.1406 5.2812-1.1406h2.625v-0.35938c0-0.69531-0.28125-1.207-0.84375-1.5312-0.55469-0.33203-1.4141-0.5-2.5781-0.5-0.96094 0-1.8516 0.10156-2.6719 0.29688-0.8125 0.1875-1.5742 0.46875-2.2812 0.84375v-3.3906c0.94531-0.22656 1.8984-0.39844 2.8594-0.51562 0.96875-0.125 1.9297-0.1875 2.8906-0.1875 2.5078 0 4.3203 0.49609 5.4375 1.4844 1.1133 0.99219 1.6719 2.6016 1.6719 4.8281z"/>
  </symbol>
  <symbol id="d" overflow="visible">
   <path d="m7-17.875v3.9531h4.5781v3.1875h-4.5781v5.9062c0 0.64844 0.125 1.0859 0.375 1.3125 0.25781 0.21875 0.76953 0.32812 1.5312 0.32812h2.2969v3.1875h-3.8281c-1.75 0-2.9961-0.36328-3.7344-1.0938-0.73047-0.73828-1.0938-1.9844-1.0938-3.7344v-5.9062h-2.2188v-3.1875h2.2188v-3.9531z"/>
  </symbol>
  <symbol id="j" overflow="visible">
   <path d="m11.609-11.875v-7.4688h4.4688v19.344h-4.4688v-2.0156c-0.61719 0.82422-1.293 1.4297-2.0312 1.8125-0.74219 0.375-1.5938 0.5625-2.5625 0.5625-1.7109 0-3.1172-0.67969-4.2188-2.0469-1.1055-1.3633-1.6562-3.1172-1.6562-5.2656 0-2.1445 0.55078-3.8945 1.6562-5.25 1.1016-1.3633 2.5078-2.0469 4.2188-2.0469 0.96875 0 1.8203 0.19531 2.5625 0.57812 0.73828 0.38672 1.4141 0.98438 2.0312 1.7969zm-2.9375 9c0.95703 0 1.6875-0.34375 2.1875-1.0312 0.5-0.69531 0.75-1.7109 0.75-3.0469 0-1.3203-0.25-2.332-0.75-3.0312-0.5-0.69531-1.2305-1.0469-2.1875-1.0469-0.9375 0-1.6641 0.35156-2.1719 1.0469-0.5 0.69922-0.75 1.7109-0.75 3.0312 0 1.3359 0.25 2.3516 0.75 3.0469 0.50781 0.6875 1.2344 1.0312 2.1719 1.0312z"/>
  </symbol>
  <symbol id="e" overflow="visible">
   <path d="m9.5469-2.875c0.94531 0 1.6719-0.34375 2.1719-1.0312 0.50781-0.69531 0.76562-1.7109 0.76562-3.0469 0-1.3203-0.25781-2.332-0.76562-3.0312-0.5-0.69531-1.2266-1.0469-2.1719-1.0469-0.96094 0-1.6953 0.35547-2.2031 1.0625-0.5 0.69922-0.75 1.7031-0.75 3.0156 0 1.3242 0.25 2.3359 0.75 3.0312 0.50781 0.69922 1.2422 1.0469 2.2031 1.0469zm-2.9531-9c0.60156-0.8125 1.2812-1.4102 2.0312-1.7969 0.75-0.38281 1.6094-0.57812 2.5781-0.57812 1.707 0 3.1133 0.68359 4.2188 2.0469 1.1016 1.3555 1.6562 3.1055 1.6562 5.25 0 2.1484-0.55469 3.9023-1.6562 5.2656-1.1055 1.3672-2.5117 2.0469-4.2188 2.0469-0.96875 0-1.8281-0.19531-2.5781-0.57812s-1.4297-0.98438-2.0312-1.7969v2.0156h-4.4531v-19.344h4.4531z"/>
  </symbol>
  <symbol id="i" overflow="visible">
   <path d="m0.3125-13.922h4.4531l3.7344 9.4531 3.1875-9.4531h4.4375l-5.8438 15.234c-0.59375 1.5508-1.2812 2.6328-2.0625 3.25-0.78125 0.625-1.8125 0.9375-3.0938 0.9375h-2.5781v-2.9219h1.3906c0.75781 0 1.3125-0.12109 1.6562-0.35938 0.34375-0.24219 0.60938-0.67188 0.79688-1.2969l0.125-0.39062z"/>
  </symbol>
  <symbol id="h" overflow="visible">
   <path d="m15.25-17.969v3.9219c-1.0234-0.45703-2.0156-0.80078-2.9844-1.0312-0.96875-0.22656-1.8867-0.34375-2.75-0.34375-1.1367 0-1.9805 0.15625-2.5312 0.46875-0.54297 0.3125-0.8125 0.80469-0.8125 1.4688 0 0.5 0.17969 0.89062 0.54688 1.1719 0.36328 0.27344 1.0312 0.50781 2 0.70312l2.0469 0.40625c2.0625 0.41797 3.5234 1.0469 4.3906 1.8906 0.875 0.84375 1.3125 2.0469 1.3125 3.6094 0 2.043-0.60938 3.5625-1.8281 4.5625-1.2109 1-3.0625 1.5-5.5625 1.5-1.1797 0-2.3594-0.11719-3.5469-0.34375-1.1797-0.21875-2.3594-0.54688-3.5469-0.98438v-4.0469c1.1875 0.63672 2.332 1.1172 3.4375 1.4375 1.1016 0.3125 2.1719 0.46875 3.2031 0.46875 1.0391 0 1.8359-0.17188 2.3906-0.51562 0.5625-0.35156 0.84375-0.85156 0.84375-1.5 0-0.57031-0.19531-1.0156-0.57812-1.3281-0.375-0.32031-1.125-0.60938-2.25-0.85938l-1.8438-0.40625c-1.8555-0.39453-3.2148-1.0234-4.0781-1.8906-0.85547-0.875-1.2812-2.0508-1.2812-3.5312 0-1.8438 0.59375-3.2578 1.7812-4.25 1.1953-1 2.9141-1.5 5.1562-1.5 1.0195 0 2.0664 0.078125 3.1406 0.23438 1.0703 0.14844 2.1875 0.375 3.3438 0.6875z"/>
  </symbol>
  <symbol id="c" overflow="visible">
   <path d="m8.7656-11.078c-0.99219 0-1.7461 0.35547-2.2656 1.0625-0.51172 0.71094-0.76562 1.7305-0.76562 3.0625 0 1.3359 0.25391 2.3555 0.76562 3.0625 0.51953 0.71094 1.2734 1.0625 2.2656 1.0625 0.96875 0 1.707-0.35156 2.2188-1.0625 0.50781-0.70703 0.76562-1.7266 0.76562-3.0625 0-1.332-0.25781-2.3516-0.76562-3.0625-0.51172-0.70703-1.25-1.0625-2.2188-1.0625zm0-3.1719c2.3945 0 4.2656 0.64844 5.6094 1.9375 1.3438 1.293 2.0156 3.0781 2.0156 5.3594 0 2.293-0.67188 4.0859-2.0156 5.375-1.3438 1.293-3.2148 1.9375-5.6094 1.9375-2.4062 0-4.2891-0.64453-5.6406-1.9375-1.3555-1.2891-2.0312-3.082-2.0312-5.375 0-2.2812 0.67578-4.0664 2.0312-5.3594 1.3516-1.2891 3.2344-1.9375 5.6406-1.9375z"/>
  </symbol>
  <symbol id="g" overflow="visible">
   <path d="m15.031-11.609c0.57031-0.86328 1.2422-1.5195 2.0156-1.9688 0.76953-0.44531 1.6172-0.67188 2.5469-0.67188 1.6016 0 2.8203 0.49609 3.6562 1.4844 0.84375 0.98047 1.2656 2.4141 1.2656 4.2969v8.4688h-4.4844v-7.2656c0.007812-0.10156 0.015625-0.21094 0.015625-0.32812 0.007813-0.11328 0.015625-0.28125 0.015625-0.5 0-0.97656-0.14844-1.6914-0.4375-2.1406-0.29297-0.44531-0.76172-0.67188-1.4062-0.67188-0.84375 0-1.4961 0.35156-1.9531 1.0469-0.46094 0.69922-0.69922 1.7109-0.71875 3.0312v6.8281h-4.4688v-7.2656c0-1.5312-0.13672-2.5195-0.40625-2.9688-0.26172-0.44531-0.73047-0.67188-1.4062-0.67188-0.85547 0-1.5156 0.35547-1.9844 1.0625-0.46094 0.69922-0.6875 1.6992-0.6875 3v6.8438h-4.4844v-13.922h4.4844v2.0469c0.53906-0.78906 1.1641-1.3828 1.875-1.7812 0.70703-0.39453 1.4883-0.59375 2.3438-0.59375 0.95703 0 1.8047 0.23438 2.5469 0.70312 0.73828 0.46094 1.2969 1.1055 1.6719 1.9375z"/>
  </symbol>
  <symbol id="r" overflow="visible">
   <path d="m11.297-19.344v2.9219h-2.4531c-0.63672 0-1.0781 0.11719-1.3281 0.34375-0.25 0.23047-0.375 0.625-0.375 1.1875v0.96875h3.8125v3.1875h-3.8125v10.734h-4.4375v-10.734h-2.2188v-3.1875h2.2188v-0.96875c0-1.5078 0.42188-2.6289 1.2656-3.3594 0.84375-0.72656 2.1484-1.0938 3.9219-1.0938z"/>
  </symbol>
  <symbol id="q" overflow="visible">
   <path d="m16.125-8.4688v8.4688h-4.4688v-6.4688c0-1.2188-0.027344-2.0508-0.078125-2.5-0.054687-0.45703-0.14844-0.79688-0.28125-1.0156-0.17969-0.28906-0.41797-0.51562-0.71875-0.67188-0.29297-0.16406-0.63281-0.25-1.0156-0.25-0.92969 0-1.6562 0.35938-2.1875 1.0781-0.52344 0.71875-0.78125 1.7148-0.78125 2.9844v6.8438h-4.4531v-19.344h4.4531v7.4688c0.66406-0.8125 1.375-1.4102 2.125-1.7969 0.75781-0.38281 1.5938-0.57812 2.5-0.57812 1.6133 0 2.832 0.49609 3.6562 1.4844 0.83203 0.98047 1.25 2.4141 1.25 4.2969z"/>
  </symbol>
  <symbol id="p" overflow="visible">
   <path d="m2.3438-18.562h5.3438l6.7344 12.734v-12.734h4.5469v18.562h-5.3438l-6.75-12.734v12.734h-4.5312z"/>
  </symbol>
  <symbol id="o" overflow="visible">
   <path d="m1.9844-5.4219v-8.5h4.4844v1.3906c0 0.76172-0.007812 1.7109-0.015625 2.8438-0.011719 1.1367-0.015625 1.8984-0.015625 2.2812 0 1.1172 0.023438 1.9219 0.078125 2.4219 0.0625 0.49219 0.16406 0.84375 0.3125 1.0625 0.17578 0.29297 0.41016 0.52344 0.70312 0.6875 0.30078 0.15625 0.64062 0.23438 1.0156 0.23438 0.92578 0 1.6562-0.35156 2.1875-1.0625 0.53125-0.71875 0.79688-1.7109 0.79688-2.9844v-6.875h4.4531v13.922h-4.4531v-2.0156c-0.66797 0.8125-1.375 1.4141-2.125 1.7969s-1.5781 0.57812-2.4844 0.57812c-1.6055 0-2.8281-0.48828-3.6719-1.4688-0.84375-0.98828-1.2656-2.4258-1.2656-4.3125z"/>
  </symbol>
  <symbol id="n" overflow="visible">
   <path d="m16.125-8.4688v8.4688h-4.4688v-6.4844c0-1.207-0.027344-2.0352-0.078125-2.4844-0.054687-0.45703-0.14844-0.79688-0.28125-1.0156-0.17969-0.28906-0.41797-0.51562-0.71875-0.67188-0.29297-0.16406-0.63281-0.25-1.0156-0.25-0.92969 0-1.6562 0.35938-2.1875 1.0781-0.52344 0.71875-0.78125 1.7148-0.78125 2.9844v6.8438h-4.4531v-13.922h4.4531v2.0469c0.66406-0.8125 1.375-1.4102 2.125-1.7969 0.75781-0.38281 1.5938-0.57812 2.5-0.57812 1.6133 0 2.832 0.49609 3.6562 1.4844 0.83203 0.98047 1.25 2.4141 1.25 4.2969z"/>
  </symbol>
  <symbol id="m" overflow="visible">
   <path d="m2.3438-18.562h7.9375c2.3516 0 4.1602 0.52734 5.4219 1.5781 1.2695 1.0547 1.9062 2.5469 1.9062 4.4844 0 1.9492-0.63672 3.4492-1.9062 4.5-1.2617 1.043-3.0703 1.5625-5.4219 1.5625h-3.1562v6.4375h-4.7812zm4.7812 3.4688v5.1875h2.6406c0.92578 0 1.6406-0.22266 2.1406-0.67188 0.50781-0.45703 0.76562-1.0977 0.76562-1.9219 0-0.83203-0.25781-1.4727-0.76562-1.9219-0.5-0.44531-1.2148-0.67188-2.1406-0.67188z"/>
  </symbol>
  <symbol id="l" overflow="visible">
   <path d="m2.1406-13.922h4.4531v13.672c0 1.8633-0.44922 3.2852-1.3438 4.2656-0.89844 0.98828-2.1953 1.4844-3.8906 1.4844h-2.2031v-2.9219h0.76562c0.84375 0 1.4219-0.19531 1.7344-0.57812 0.32031-0.38672 0.48438-1.1367 0.48438-2.25zm0-5.4219h4.4531v3.6406h-4.4531z"/>
  </symbol>
  <symbol id="k" overflow="visible">
   <path d="m13.391-13.484v3.625c-0.60547-0.41406-1.2148-0.72266-1.8281-0.92188-0.60547-0.19531-1.2344-0.29688-1.8906-0.29688-1.2422 0-2.2109 0.36719-2.9062 1.0938-0.6875 0.71875-1.0312 1.7305-1.0312 3.0312 0 1.3047 0.34375 2.3203 1.0312 3.0469 0.69531 0.71875 1.6641 1.0781 2.9062 1.0781 0.69531 0 1.3594-0.097656 1.9844-0.29688 0.625-0.20703 1.2031-0.51562 1.7344-0.92188v3.6406c-0.69922 0.25-1.4062 0.4375-2.125 0.5625-0.71875 0.13281-1.4375 0.20312-2.1562 0.20312-2.5117 0-4.4766-0.64062-5.8906-1.9219-1.418-1.2891-2.125-3.0859-2.125-5.3906 0-2.2891 0.70703-4.0781 2.125-5.3594 1.4141-1.2891 3.3789-1.9375 5.8906-1.9375 0.72656 0 1.4453 0.0625 2.1562 0.1875 0.70703 0.125 1.4141 0.32031 2.125 0.57812z"/>
  </symbol>
 </defs>
 <g>
  <path d="m392.2 498.04h-125.39c-2.8125 0-5.0938-2.2773-5.0938-5.0898v-54.625c0-2.8125 2.2812-5.0898 5.0938-5.0898h125.39c1.3516 0 2.6445 0.53516 3.6016 1.4883 0.95312 0.95703 1.4883 2.25 1.4883 3.6016v54.625c0 2.8125-2.2773 5.0898-5.0898 5.0898zm-120.3-10.184 115.21 0.003906v-44.445h-115.21z"/>
  <path d="m507.82 443.42h-356.36c-13.906 0.015625-27.25-5.4961-37.09-15.32-9.8438-9.8242-15.383-23.156-15.395-37.066v-271.24c0.027344-13.902 5.5664-27.227 15.406-37.047 9.8398-9.8242 23.176-15.34 37.078-15.34h109.51c1.7305 0.003906 3.3398 0.88672 4.2773 2.3438 1.0195 1.5117 1.1562 3.4531 0.35547 5.0898-3.5469 7.7461-5.3711 16.172-5.3477 24.691 0.019531 8.0312 2.4102 15.879 6.875 22.551l8.3984 10.285c1.125 1.4531 1.375 3.3984 0.66406 5.0898-0.76562 1.7148-2.4102 2.8672-4.2773 3.0039-5.3086 0.42578-9.582 4.5312-10.223 9.8164-0.64453 5.2812 2.5234 10.289 7.5742 11.973 0.9375-0.87891 2.1758-1.3672 3.4609-1.375 1.3516 0 2.6445 0.53906 3.6016 1.4922 0.95313 0.95703 1.4922 2.25 1.4922 3.6016 0.019531 15.168 6.6562 29.578 18.172 39.453 1.1172 0.95703 1.7695 2.3477 1.7812 3.8203v19.852c0.26562 1.4648-0.125 2.9727-1.0664 4.125-1.0117 1.1211-2.4648 1.7344-3.9727 1.6797h-1.6797c-22.703 0.28125-44.367 9.5469-60.254 25.77-15.887 16.219-24.699 38.074-24.508 60.777v32.379l246.45-0.003906v-32.223c0.19141-22.695-8.6133-44.543-24.492-60.762-15.875-16.219-37.527-25.488-60.219-25.785h-1.6797c-1.5391 0.027344-3.0039-0.63672-3.9922-1.8164-0.98828-1.1758-1.3945-2.7344-1.1016-4.2422v-19.344c0.015625-1.4727 0.66406-2.8633 1.7812-3.8203 11.516-9.875 18.152-24.281 18.176-39.453 0-2.8125 2.2812-5.0898 5.0898-5.0898 1.2891 0.003906 2.5234 0.49609 3.4648 1.375 4.5859-1.5508 7.6797-5.8516 7.6875-10.691-0.007813-5.7695-4.4336-10.57-10.184-11.047-1.9375-0.15625-3.6133-1.4023-4.3281-3.207-0.62891-1.75-0.25781-3.6992 0.96875-5.0938 5.8516-7.25 9.8711-15.809 11.707-24.945l1.8828-7.1797 0.003906 0.003906c1.1875-4.2578 1.1836-8.7578-0.007812-13.016-1.1953-4.2539-3.5352-8.1016-6.7656-11.117-1.5156-1.418-2.0195-3.6133-1.2734-5.5469 0.75781-1.9609 2.6367-3.2539 4.7344-3.2617h41.898c1.3516 0 2.6445 0.53906 3.6016 1.4922 0.95312 0.95703 1.4922 2.25 1.4922 3.6016v62.617c-0.015626 3.1406 1.2227 6.1602 3.4414 8.3828 2.2148 2.2266 5.2266 3.4805 8.3672 3.4805h12.32c1.3516 0 2.6445 0.53516 3.6016 1.4883 0.95312 0.95703 1.4883 2.25 1.4883 3.6016v15.781l26.219-20.363c0.89062-0.69141 1.9805-1.0664 3.1055-1.0703h55.238c1.3477 0 2.6445 0.53906 3.5977 1.4922 0.95703 0.95312 1.4922 2.25 1.4922 3.5977v239.38c0 13.867-5.4961 27.168-15.289 36.988-9.793 9.8203-23.078 15.359-36.945 15.398zm-356.36-365.83c-11.188 0.011718-21.914 4.4648-29.828 12.375-7.9102 7.9141-12.359 18.641-12.375 29.828v271.24c0 11.195 4.4492 21.93 12.363 29.844 7.9141 7.9141 18.648 12.363 29.84 12.363h356.36c11.188-0.015625 21.906-4.4688 29.812-12.383 7.9023-7.9102 12.344-18.637 12.344-29.824v-233.88h-48.418l-33.039 25.453c-1.543 1.1875-3.625 1.3945-5.3711 0.52734-1.7422-0.86719-2.8398-2.6523-2.8242-4.5977v-21.383h-7.2305c-5.8359-0.011719-11.43-2.3398-15.555-6.4727-4.1211-4.1328-6.4375-9.7344-6.4375-15.57v-57.527h-26.523c4.1992 7.7969 5.2344 16.91 2.9023 25.453l-1.8828 7.2305c-1.9141 8.1016-5.0547 15.859-9.3164 23.012 5.1914 2.7031 9.043 7.4219 10.652 13.051 1.6094 5.6289 0.83594 11.672-2.1445 16.715-2.9766 5.0391-7.8945 8.6328-13.602 9.9414-1.582 14.977-8.5469 28.867-19.598 39.098v13.035c24.816 1.1445 48.227 11.859 65.312 29.895 17.086 18.035 26.52 41.988 26.324 66.832v37.469c0 1.3516-0.53906 2.6445-1.4922 3.6016-0.95312 0.95312-2.25 1.4883-3.5977 1.4883h-256.94c-2.8086 0-5.0898-2.2773-5.0898-5.0898v-37.723c-0.19922-24.844 9.2383-48.797 26.324-66.832 17.086-18.035 40.496-28.75 65.312-29.895v-13.035c-11.051-10.23-18.016-24.121-19.602-39.098-5.7266-1.293-10.668-4.8906-13.656-9.9414-2.9922-5.0508-3.7695-11.113-2.1484-16.758 1.625-5.6406 5.5-10.367 10.715-13.062l-3.9727-5.0898h0.003906c-3.7773-5.4805-6.4258-11.66-7.7891-18.172-0.71484-3.3477-1.0703-6.7617-1.0703-10.184-0.003906-7.3828 1.1641-14.723 3.4609-21.738z"/>
  <path d="m423.21 530.52h-187.39c-2.8125 0-5.0938-2.2773-5.0938-5.0898v-11.25c0.015625-7.0195 2.8086-13.746 7.7695-18.707 4.9609-4.9609 11.688-7.7539 18.703-7.7656h144.63c7.0234 0 13.754 2.7891 18.719 7.75 4.9648 4.9648 7.7539 11.699 7.7539 18.723v11.098c0.042969 1.375-0.47656 2.7109-1.4336 3.6992-0.96094 0.98828-2.2773 1.543-3.6562 1.543zm-182.3-10.184 177.21 0.003906v-6.1602c-0.015626-4.3164-1.7344-8.4531-4.7891-11.508-3.0508-3.0508-7.1875-4.7695-11.504-4.7852h-144.63c-4.3164 0.015625-8.4492 1.7344-11.504 4.7852-3.0508 3.0547-4.7734 7.1914-4.7852 11.508z"/>
  <path d="m201.19 364.15h-48.109c-5.5234 0-10.828-2.1914-14.738-6.0938-3.9141-3.9062-6.1211-9.1992-6.1328-14.727v-218.91c0.011718-5.5312 2.2188-10.832 6.1289-14.746 3.9102-3.9102 9.2109-6.1133 14.742-6.125h103.04c2.457-0.050781 4.5977 1.6641 5.0898 4.0703 1.0273 5.1055 3.0703 9.9531 6.0078 14.254l8.2969 10.488c1.125 1.4531 1.375 3.3984 0.66406 5.0898-0.76562 1.7148-2.4102 2.8672-4.2773 3.0039-5.3086 0.42578-9.582 4.5312-10.223 9.8164-0.64453 5.2812 2.5234 10.289 7.5742 11.973 0.9375-0.87891 2.1758-1.3672 3.4609-1.375 1.3516 0 2.6445 0.53906 3.6016 1.4922 0.95313 0.95703 1.4922 2.25 1.4922 3.6016 0.019531 15.168 6.6562 29.578 18.172 39.453 1.1172 0.95703 1.7695 2.3477 1.7812 3.8203v19.852h-5.0898 5.0898c0.30078 1.4336-0.09375 2.9258-1.0664 4.0234-1.0195 1.1016-2.4727 1.6992-3.9727 1.6289h-1.6797c-22.703 0.28125-44.367 9.5469-60.254 25.766-15.887 16.223-24.699 38.074-24.508 60.781v37.469c0.082032 1.4023-0.41797 2.7773-1.3789 3.7969-0.96484 1.0234-2.3086 1.6016-3.7148 1.5977zm-48.109-250.42c-5.8906 0.027343-10.66 4.7969-10.688 10.691v218.91c0 2.8281 1.125 5.543 3.1328 7.5391 2.0078 2 4.7266 3.1133 7.5547 3.1016h43.02v-32.379c-0.19922-24.844 9.2383-48.797 26.324-66.832 17.086-18.035 40.496-28.75 65.312-29.895v-13.035c-11.051-10.23-18.016-24.121-19.602-39.098-5.7266-1.293-10.668-4.8906-13.656-9.9414-2.9922-5.0508-3.7695-11.113-2.1484-16.758 1.625-5.6406 5.5-10.367 10.715-13.062l-3.9727-5.0898h0.003906c-2.9844-4.332-5.2695-9.1094-6.7734-14.152z"/>
  <path d="m505.93 364.15h-48.109c-2.8086 0-5.0898-2.2773-5.0898-5.0898v-37.469c0.19141-22.695-8.6133-44.543-24.492-60.762-15.875-16.219-37.527-25.488-60.219-25.785h-1.6797c-1.5391 0.027344-3.0039-0.63672-3.9922-1.8164-0.98828-1.1758-1.3945-2.7344-1.1016-4.2422v-19.344c0.015625-1.4727 0.66406-2.8633 1.7812-3.8203 11.516-9.875 18.152-24.281 18.176-39.453 0-2.8125 2.2812-5.0898 5.0898-5.0898 1.2891 0.003906 2.5234 0.49609 3.4648 1.375 4.5859-1.5508 7.6797-5.8516 7.6875-10.691-0.007813-5.7695-4.4336-10.57-10.184-11.047-1.9375-0.15625-3.6133-1.4023-4.3281-3.207-0.62891-1.75-0.25781-3.6992 0.96875-5.0938 5.8516-7.25 9.8711-15.809 11.707-24.945 0.59766-2.3047 2.7109-3.8945 5.0938-3.8164h35.637c1.3477 0 2.6445 0.53516 3.5977 1.4883 0.95312 0.95703 1.4922 2.25 1.4922 3.6016v26.473c-0.015625 3.1406 1.2227 6.1602 3.4414 8.3828 2.2148 2.2266 5.2266 3.4805 8.3672 3.4805h12.32c1.3516 0 2.6445 0.53516 3.6016 1.4883 0.95313 0.95703 1.4922 2.25 1.4922 3.6016v15.629l26.219-20.363h-0.003906c0.89062-0.69141 1.9805-1.0664 3.1055-1.0703h21.891c1.3516 0 2.6484 0.53906 3.6016 1.4922s1.4922 2.25 1.4922 3.5977v191.68c-0.015626 5.5508-2.2422 10.871-6.1875 14.781-3.9453 3.9062-9.2852 6.082-14.84 6.0391zm-43.02-10.184h43.02v0.003906c2.832 0.011719 5.5508-1.1016 7.5586-3.1016 2.0039-1.9961 3.1328-4.7109 3.1328-7.5391v-186.18h-15.273l-33.039 25.453c-1.543 1.1875-3.6289 1.3945-5.3711 0.52734-1.7422-0.86719-2.8398-2.6523-2.8242-4.5977v-21.383h-7.0273c-5.8359-0.011719-11.43-2.3398-15.555-6.4727-4.1211-4.1328-6.4375-9.7344-6.4375-15.57v-21.383h-26.574c-1.7891 6.8008-4.5664 13.305-8.2461 19.297 5.1914 2.7031 9.043 7.4219 10.652 13.051 1.6094 5.6289 0.83594 11.672-2.1445 16.711-2.9766 5.043-7.8945 8.6367-13.602 9.9453-1.582 14.977-8.5469 28.867-19.598 39.098v13.035c24.816 1.1445 48.227 11.859 65.312 29.895 17.086 18.035 26.52 41.988 26.324 66.832z"/>
  <path d="m322.97 419.34c-5.4688 0-10.715-2.1758-14.582-6.0391-3.8672-3.8672-6.0391-9.1133-6.0391-14.582s2.1719-10.711 6.0391-14.578c3.8672-3.8672 9.1133-6.0391 14.582-6.0391s10.711 2.1719 14.578 6.0391 6.0391 9.1094 6.0391 14.578c-0.015626 5.4648-2.1914 10.703-6.0547 14.566-3.8633 3.8633-9.1016 6.0391-14.562 6.0547zm0-31.055c-4.0938 0.10156-7.7305 2.6445-9.2266 6.457-1.4961 3.8125-0.5625 8.1484 2.3711 11.008 2.9297 2.8594 7.2891 3.6836 11.062 2.0938 3.7734-1.5898 6.2266-5.2852 6.2266-9.3789-0.13672-5.6641-4.7695-10.184-10.434-10.18z"/>
  <path d="m234.89 148.3h-59.816c-2.8125 0-5.0938-2.2773-5.0938-5.0898s2.2812-5.0898 5.0938-5.0898h59.816c2.8125 0 5.0898 2.2773 5.0898 5.0898s-2.2773 5.0898-5.0898 5.0898z"/>
  <path d="m193.96 178.84h-18.887c-2.8125 0-5.0938-2.2812-5.0938-5.0898 0-2.8125 2.2812-5.0938 5.0938-5.0938h18.887c2.8086 0 5.0898 2.2812 5.0898 5.0938 0 2.8086-2.2812 5.0898-5.0898 5.0898z"/>
  <path d="m457.82 364.2h-256.63c-2.8086 0-5.0898-2.2773-5.0898-5.0898v-37.52c-0.19141-25.406 9.6953-49.848 27.492-67.977 17.797-18.133 42.051-28.469 67.453-28.75h1.6797c1.3516 0 2.6445 0.53516 3.6016 1.4883 0.95312 0.95703 1.4883 2.25 1.4883 3.6016 0 11.332 6.0469 21.801 15.859 27.465 9.8125 5.668 21.902 5.668 31.719 0 9.8125-5.6641 15.855-16.133 15.855-27.465 0-2.8125 2.2812-5.0898 5.0938-5.0898h1.6797c25.398 0.28125 49.648 10.621 67.434 28.75 17.789 18.133 27.664 42.578 27.461 67.977v37.52c0 1.3516-0.53906 2.6445-1.4922 3.5977-0.95703 0.95703-2.25 1.4922-3.6016 1.4922zm-251.54-10.184 246.45 0.003907v-32.43c0.18359-22.184-8.2148-43.578-23.445-59.711-15.23-16.129-36.105-25.746-58.262-26.836-1.8906 13.453-10.188 25.156-22.254 31.391-12.066 6.2383-26.41 6.2383-38.477 0-12.07-6.2344-20.363-17.938-22.254-31.391-22.164 1.0781-43.055 10.688-58.297 26.82-15.238 16.133-23.645 37.535-23.461 59.727z"/>
  <path d="m329.64 271.09c-10.902-0.03125-21.363-4.3008-29.18-11.898-7.8164-7.5977-12.375-17.934-12.719-28.828-0.027343-0.37109-0.027343-0.74609 0-1.1211v-19.699c0-1.9883 1.1562-3.793 2.9609-4.625 1.8047-0.83203 3.9297-0.53516 5.4375 0.75391 9.3711 7.957 21.262 12.324 33.551 12.324s24.18-4.3672 33.551-12.324c1.5078-1.2891 3.6328-1.5859 5.4375-0.75391 1.8047 0.83203 2.9609 2.6367 2.9609 4.625v19.547 1.1211c-0.31641 10.934-4.8789 21.316-12.719 28.949-7.8398 7.6289-18.34 11.91-29.281 11.93zm-31.871-51.672v9.6719 0.55859 0.003906c0 11.328 6.0469 21.801 15.859 27.465 9.8125 5.668 21.902 5.668 31.719 0 9.8125-5.6641 15.855-16.137 15.855-27.465-0.050781-0.30469-0.050781-0.61328 0-0.91797v-9.3164c-9.6055 5.7305-20.582 8.7539-31.766 8.7539-11.188 0-22.164-3.0234-31.77-8.7539z"/>
  <path d="m329.64 228.18c-16.438 0.054688-32.215-6.4414-43.852-18.051-11.637-11.605-18.168-27.371-18.156-43.805v-28.867c-0.078125-0.41797-0.078125-0.85156 0-1.2695l6.3633-24.184c1.3633-5.9141 6.6055-10.125 12.676-10.184h51.52c2.8438 0.019532 5.5742-1.0977 7.5859-3.1055l12.066-11.711v0.003906c2.2227-2.1367 5.4961-2.7617 8.3516-1.5938 2.8516 1.168 4.7461 3.9062 4.8359 6.9883 0 23.113 18.633 40.727 18.785 41.031v0.003906c1.0312 0.95703 1.6211 2.3047 1.6289 3.7148v29.07c0.027344 16.414-6.4727 32.164-18.062 43.785-11.594 11.621-27.328 18.156-43.742 18.172zm-51.824-90.312v28.457c0 18.48 9.8555 35.555 25.859 44.793 16.004 9.2422 35.723 9.2422 51.723 0 16.004-9.2383 25.863-26.312 25.863-44.793v-26.98c-10.906-11.297-18.027-25.711-20.363-41.238l-8.1953 7.9922c-3.8945 3.7695-9.0938 5.8867-14.512 5.9062h-51.52c-1.3164 0.023438-2.457 0.91797-2.8008 2.1875z"/>
  <path d="m272.72 142.55c-1.5469-0.007813-3.0078-0.71875-3.9688-1.9375l-9.8242-12.523h-0.003906c-5.7344-8.4023-8.8203-18.332-8.8555-28.508-0.082031-18.574 7.2422-36.41 20.352-49.57 13.109-13.156 30.922-20.547 49.496-20.531h47.293c2.6992 0 5.2891 1.0742 7.1992 2.9805 1.9102 1.9102 2.9844 4.5 2.9844 7.1992v10.949c-0.011719 1.7383 0.79688 3.3789 2.1875 4.4258l15.273 11.352v0.003907c5.4961 4.1133 9.6328 9.7773 11.875 16.27 2.2422 6.4883 2.4844 13.5 0.69922 20.129l-0.81641 3.0547c-2.9023 11.148-6.5156 25.047-16.801 35.027h0.003906c-1.9688 1.8711-5.0586 1.8711-7.0273 0-11.641-11.57-19.246-26.586-21.688-42.816l-8.1953 7.9922c-3.9336 3.8359-9.2188 5.9766-14.715 5.957h-51.52c-1.3164 0.023438-2.457 0.91797-2.8008 2.1875l-6.2109 24.234c-0.47656 1.8711-1.9766 3.3125-3.8672 3.7148zm90.52-57.68c1.0117 0 2.0195 0.20703 2.9492 0.60937 2.9766 1.082 4.9922 3.8633 5.0938 7.0234 0.79297 13.734 6.1719 26.801 15.27 37.113 5.1602-8.0234 8.7539-16.957 10.59-26.32l0.81641-3.1055c1.2227-4.6406 1.0312-9.543-0.54297-14.078-1.5781-4.5352-4.4766-8.4961-8.3164-11.375l-15.273-11.352c-3.957-2.9648-6.2812-7.6289-6.2617-12.574v-10.945h-47.551 0.003906c-15.82-0.042969-31.008 6.207-42.219 17.371-11.207 11.16-17.523 26.32-17.551 42.141-0.03125 8.1172 2.3594 16.059 6.875 22.809l3.2578 4.0742 3.6133-14.254v-0.003906c1.3633-5.9141 6.6055-10.125 12.676-10.184h51.52c2.8438 0.019532 5.5742-1.0977 7.5859-3.1055l12.066-11.711v0.003906c1.457-1.3828 3.3906-2.1484 5.3984-2.1367z"/>
  <path d="m386.35 173.09c-2.8086 0-5.0898-2.2773-5.0898-5.0898v-32.379c0-2.8125 2.2812-5.0898 5.0898-5.0898 7.3828 0.35938 14.055 4.5078 17.648 10.969 3.5898 6.4609 3.5898 14.316 0 20.777-3.5938 6.457-10.266 10.605-17.648 10.965zm5.0898-31.309v19.906h0.003906c3.7227-1.9219 6.0625-5.7617 6.0625-9.9531s-2.3398-8.0312-6.0625-9.9531z"/>
  <path d="m272.72 173.09c-5.8438 0.28516-11.551-1.8359-15.789-5.8711-4.2344-4.0352-6.6328-9.6328-6.6328-15.484s2.3984-11.449 6.6328-15.484c4.2383-4.0352 9.9453-6.1562 15.789-5.8711 1.3516 0 2.6445 0.53516 3.6016 1.4922 0.95313 0.95312 1.4922 2.2461 1.4922 3.5977v32.531c0 1.3516-0.53906 2.6445-1.4922 3.6016-0.95703 0.95313-2.25 1.4883-3.6016 1.4883zm-5.0898-31.309c-3.7539 1.8984-6.125 5.7461-6.125 9.9531s2.3711 8.0586 6.125 9.9531z"/>
  <path d="m411.7 364.2c-2.8125 0-5.0938-2.2773-5.0938-5.0898v-64.656c0-2.8086 2.2812-5.0898 5.0938-5.0898 2.8086 0 5.0898 2.2812 5.0898 5.0898v64.656c0 1.3516-0.53516 2.6445-1.4922 3.5977-0.95312 0.95703-2.25 1.4922-3.5977 1.4922z"/>
  <path d="m247.32 364.2c-2.8125 0-5.0898-2.2773-5.0898-5.0898v-64.656c0-2.8086 2.2773-5.0898 5.0898-5.0898s5.0898 2.2812 5.0898 5.0898v64.656c0 1.3516-0.53516 2.6445-1.4883 3.5977-0.95703 0.95703-2.25 1.4922-3.6016 1.4922z"/>
  <path d="m215.7 178.84h-5.0938c-2.8086 0-5.0898-2.2812-5.0898-5.0898 0-2.8125 2.2812-5.0938 5.0898-5.0938h5.0938c2.8086 0 5.0898 2.2812 5.0898 5.0938 0 2.8086-2.2812 5.0898-5.0898 5.0898z"/>
  <path d="m411.7 364.2c-2.8125 0-5.0938-2.2773-5.0938-5.0898v-64.656c0-2.8086 2.2812-5.0898 5.0938-5.0898 2.8086 0 5.0898 2.2812 5.0898 5.0898v64.656c0 1.3516-0.53516 2.6445-1.4922 3.5977-0.95312 0.95703-2.25 1.4922-3.5977 1.4922z"/>
  <path d="m247.32 364.2c-2.8125 0-5.0898-2.2773-5.0898-5.0898v-64.656c0-2.8086 2.2773-5.0898 5.0898-5.0898s5.0898 2.2812 5.0898 5.0898v64.656c0 1.3516-0.53516 2.6445-1.4883 3.5977-0.95703 0.95703-2.25 1.4922-3.6016 1.4922z"/>
  <path d="m465.41 183.63c-0.77344 0.003906-1.543-0.17188-2.2383-0.50781-1.75-0.85938-2.8555-2.6367-2.8516-4.582v-21.332h-7.2305c-5.8359-0.011719-11.43-2.3398-15.555-6.4727-4.1211-4.1328-6.4375-9.7344-6.4375-15.57v-81.453c0-5.8398 2.3164-11.438 6.4375-15.57 4.125-4.1328 9.7188-6.4609 15.555-6.4766h126c5.8477 0 11.453 2.3242 15.59 6.457 4.1328 4.1367 6.4531 9.7422 6.4531 15.59v81.453c0 5.8477-2.3203 11.453-6.4531 15.586-4.1367 4.1367-9.7422 6.457-15.59 6.457h-77.535l-33.039 25.453c-0.90234 0.65625-1.9922 0.99609-3.1055 0.96875zm-12.32-141.83c-6.5312 0.027344-11.809 5.3281-11.809 11.859v81.457c0 6.5312 5.2773 11.832 11.809 11.859h12.32c1.3516 0 2.6445 0.53906 3.6016 1.4922 0.95312 0.95703 1.4883 2.25 1.4883 3.6016v15.934l26.219-20.109c0.89062-0.6875 1.9805-1.0664 3.1055-1.0703h79.266c6.5508 0 11.863-5.3086 11.863-11.859v-81.457c-0.085937-6.4883-5.3711-11.707-11.863-11.707z"/>
  <path d="m477.68 74.988h-10.184 0.003906c-2.8125 0-5.0938-2.2773-5.0938-5.0898s2.2812-5.0898 5.0938-5.0898h10.184-0.003906c2.8125 0 5.0898 2.2773 5.0898 5.0898s-2.2773 5.0898-5.0898 5.0898z"/>
  <path d="m564.43 74.988h-66.539c-2.8125 0-5.0898-2.2773-5.0898-5.0898s2.2773-5.0898 5.0898-5.0898h66.539c2.8125 0 5.0898 2.2773 5.0898 5.0898s-2.2773 5.0898-5.0898 5.0898z"/>
  <path d="m564.43 100.8h-96.727c-2.8125 0-5.0938-2.2812-5.0938-5.0898 0-2.8125 2.2812-5.0938 5.0938-5.0938h96.727c2.8125 0 5.0898 2.2812 5.0898 5.0938 0 2.8086-2.2773 5.0898-5.0898 5.0898z"/>
  <path d="m513.57 126.61h-45.816c-2.8125 0-5.0938-2.2773-5.0938-5.0898s2.2812-5.0898 5.0938-5.0898h45.816c2.8125 0 5.0898 2.2773 5.0898 5.0898s-2.2773 5.0898-5.0898 5.0898z"/>
  <path d="m564.43 126.61h-35.18c-2.8125 0-5.0898-2.2773-5.0898-5.0898s2.2773-5.0898 5.0898-5.0898h35.18c2.8125 0 5.0898 2.2773 5.0898 5.0898s-2.2773 5.0898-5.0898 5.0898z"/>
  <use x="70" y="636.363281" xlink:href="#s"/>
  <use x="88.679688" y="636.363281" xlink:href="#b"/>
  <use x="101.234375" y="636.363281" xlink:href="#a"/>
  <use x="118.496094" y="636.363281" xlink:href="#f"/>
  <use x="135.675781" y="636.363281" xlink:href="#d"/>
  <use x="147.84375" y="636.363281" xlink:href="#a"/>
  <use x="165.105469" y="636.363281" xlink:href="#j"/>
  <use x="192.1875" y="636.363281" xlink:href="#e"/>
  <use x="210.410156" y="636.363281" xlink:href="#i"/>
  <use x="235.863281" y="636.363281" xlink:href="#h"/>
  <use x="254.199219" y="636.363281" xlink:href="#c"/>
  <use x="271.683594" y="636.363281" xlink:href="#b"/>
  <use x="284.238281" y="636.363281" xlink:href="#a"/>
  <use x="301.503906" y="636.363281" xlink:href="#g"/>
  <use x="328.027344" y="636.363281" xlink:href="#e"/>
  <use x="346.246094" y="636.363281" xlink:href="#f"/>
  <use x="70" y="661.816406" xlink:href="#r"/>
  <use x="81.074219" y="661.816406" xlink:href="#b"/>
  <use x="93.628906" y="661.816406" xlink:href="#c"/>
  <use x="111.113281" y="661.816406" xlink:href="#g"/>
  <use x="146.5" y="661.816406" xlink:href="#d"/>
  <use x="158.667969" y="661.816406" xlink:href="#q"/>
  <use x="176.789062" y="661.816406" xlink:href="#a"/>
  <use x="202.914062" y="661.816406" xlink:href="#p"/>
  <use x="224.21875" y="661.816406" xlink:href="#c"/>
  <use x="241.707031" y="661.816406" xlink:href="#o"/>
  <use x="259.828125" y="661.816406" xlink:href="#n"/>
  <use x="286.8125" y="661.816406" xlink:href="#m"/>
  <use x="305.46875" y="661.816406" xlink:href="#b"/>
  <use x="318.019531" y="661.816406" xlink:href="#c"/>
  <use x="335.507812" y="661.816406" xlink:href="#l"/>
  <use x="344.234375" y="661.816406" xlink:href="#a"/>
  <use x="361.496094" y="661.816406" xlink:href="#k"/>
  <use x="376.585937" y="661.816406" xlink:href="#d"/>
 </g>
</svg>
