<svg xmlns="http://www.w3.org/2000/svg" version="1.1" xmlns:xlink="http://www.w3.org/1999/xlink" xmlns:svgjs="http://svgjs.dev/svgjs" viewBox="0 0 14.588912989745152 11.97516777129116"><g transform="matrix(1,0,0,1,1.1003922707514828,8.590295300539678)"><g><path d=" M 0.1020225 1.1975099999999999 L 0.1020225 0.010034999999999794 L 0.42816 0.010034999999999794 L 0.42816 1.1975099999999999 L 0.1020225 1.1975099999999999 Z M 1.044234684814453 0.6138074999999998 L 1.044234684814453 1.1975099999999999 L 0.7180971848144531 1.1975099999999999 L 0.7180971848144531 0.010034999999999794 L 0.972317184814453 0.010034999999999794 L 1.4489796848144532 0.6138074999999998 L 1.4489796848144532 0.010034999999999794 L 1.775117184814453 0.010034999999999794 L 1.775117184814453 1.1975099999999999 L 1.5158796848144531 1.1975099999999999 L 1.044234684814453 0.6138074999999998 Z M 2.7842489692382815 0.3980549999999998 Q 2.7842489692382815 0.3980549999999998 2.7558164692382814 0.38132999999999984 Q 2.7273839692382813 0.36460499999999985 2.6805539692382814 0.34369874999999983 Q 2.6337239692382814 0.3227924999999999 2.578531469238281 0.30606749999999994 Q 2.523338969238281 0.28934249999999984 2.4698189692382813 0.28934249999999984 Q 2.428006469238281 0.28934249999999984 2.401246469238281 0.3027224999999999 Q 2.374486469238281 0.31610249999999984 2.374486469238281 0.34787999999999986 Q 2.374486469238281 0.3779849999999999 2.401246469238281 0.39638249999999986 Q 2.428006469238281 0.4147799999999999 2.4773452192382814 0.42983249999999984 Q 2.526683969238281 0.44488499999999986 2.595256469238281 0.46662749999999986 Q 2.705641469238281 0.5000774999999998 2.785921469238281 0.5435624999999998 Q 2.8662014692382813 0.5870474999999998 2.9096864692382813 0.6547837499999999 Q 2.9531714692382813 0.7225199999999998 2.9531714692382813 0.8345774999999999 Q 2.9531714692382813 0.9416174999999999 2.914703969238281 1.01437125 Q 2.876236469238281 1.087125 2.811008969238281 1.13061 Q 2.745781469238281 1.1740949999999999 2.665501469238281 1.1933287499999998 Q 2.5852214692382813 1.2125624999999998 2.5015964692382813 1.2125624999999998 Q 2.416298969238281 1.2125624999999998 2.323475219238281 1.1950012499999998 Q 2.230651469238281 1.1774399999999998 2.143681469238281 1.14649875 Q 2.056711469238281 1.1155574999999998 1.9847939692382812 1.073745 L 2.1252839692382812 0.7877474999999998 Q 2.1252839692382812 0.7877474999999998 2.1587339692382814 0.8078174999999999 Q 2.192183969238281 0.8278874999999999 2.247376469238281 0.8529749999999998 Q 2.302568969238281 0.8780624999999999 2.370305219238281 0.8981324999999999 Q 2.4380414692382812 0.9182024999999998 2.5066139692382814 0.9182024999999998 Q 2.560133969238281 0.9182024999999998 2.581040219238281 0.9039862499999999 Q 2.601946469238281 0.8897699999999998 2.601946469238281 0.8663549999999999 Q 2.601946469238281 0.8312324999999998 2.5651514692382813 0.8119987499999999 Q 2.528356469238281 0.7927649999999999 2.468982719238281 0.7752037499999999 Q 2.409608969238281 0.7576424999999999 2.337691469238281 0.7342274999999998 Q 2.2339964692382814 0.6991049999999999 2.167096469238281 0.6547837499999999 Q 2.100196469238281 0.6104624999999999 2.068418969238281 0.5494162499999998 Q 2.036641469238281 0.48836999999999986 2.036641469238281 0.40139999999999987 Q 2.036641469238281 0.2692724999999999 2.0985239692382813 0.18062999999999985 Q 2.160406469238281 0.09198749999999989 2.261592719238281 0.04599374999999983 Q 2.3627789692382812 0 2.479853969238281 0 Q 2.566823969238281 0 2.647940219238281 0.020906249999999904 Q 2.729056469238281 0.04181249999999981 2.8001377192382813 0.07191749999999986 Q 2.8712189692382815 0.1020224999999999 2.9247389692382812 0.1287824999999998 L 2.7842489692382815 0.3980549999999998 Z M 3.1828782377929685 1.1975099999999999 L 3.1828782377929685 0.010034999999999794 L 3.6946632377929687 0.010034999999999794 Q 3.7816332377929687 0.010034999999999794 3.8552232377929685 0.04515749999999996 Q 3.9288132377929683 0.08027999999999991 3.9823332377929685 0.1396537499999999 Q 4.035853237792969 0.1990274999999999 4.065121987792969 0.27261749999999985 Q 4.094390737792969 0.3462074999999999 4.094390737792969 0.4214699999999999 Q 4.094390737792969 0.5268374999999998 4.045051987792968 0.6204974999999999 Q 3.9957132377929687 0.7141574999999999 3.907906987792969 0.7735312499999999 Q 3.8201007377929685 0.8329049999999998 3.7030257377929687 0.8329049999999998 L 3.5090157377929687 0.8329049999999998 L 3.5090157377929687 1.1975099999999999 L 3.1828782377929685 1.1975099999999999 Z M 3.5090157377929687 0.5485799999999998 L 3.6812832377929685 0.5485799999999998 Q 3.7013532377929685 0.5485799999999998 3.7197507377929684 0.5368724999999999 Q 3.7381482377929687 0.5251649999999999 3.7506919877929685 0.4967324999999999 Q 3.763235737792969 0.4682999999999998 3.763235737792969 0.4214699999999999 Q 3.763235737792969 0.37129499999999993 3.7490194877929683 0.34369874999999983 Q 3.7348032377929687 0.31610249999999984 3.7138969877929684 0.30523124999999984 Q 3.6929907377929685 0.29435999999999984 3.6729207377929685 0.29435999999999984 L 3.5090157377929687 0.29435999999999984 L 3.5090157377929687 0.5485799999999998 Z M 4.310788554931641 1.1975099999999999 L 4.310788554931641 0.010034999999999794 L 4.6369260549316405 0.010034999999999794 L 4.6369260549316405 1.1975099999999999 L 4.310788554931641 1.1975099999999999 Z M 4.926863239746094 1.1975099999999999 L 4.926863239746094 0.010034999999999794 L 5.472098239746094 0.010034999999999794 Q 5.559068239746094 0.010034999999999794 5.632658239746093 0.04515749999999996 Q 5.706248239746094 0.08027999999999991 5.759768239746093 0.1396537499999999 Q 5.813288239746093 0.1990274999999999 5.842556989746093 0.27261749999999985 Q 5.871825739746094 0.3462074999999999 5.871825739746094 0.4214699999999999 Q 5.871825739746094 0.4900424999999998 5.8517557397460935 0.5535974999999999 Q 5.831685739746094 0.6171524999999999 5.793218239746094 0.6698362499999999 Q 5.754750739746093 0.7225199999999998 5.7012307397460935 0.7609874999999999 L 5.952105739746093 1.1975099999999999 L 5.594190739746094 1.1975099999999999 L 5.385128239746094 0.8329049999999998 L 5.253000739746094 0.8329049999999998 L 5.253000739746094 1.1975099999999999 L 4.926863239746094 1.1975099999999999 Z M 5.253000739746094 0.5485799999999998 L 5.458718239746093 0.5485799999999998 Q 5.478788239746094 0.5485799999999998 5.497185739746094 0.5335274999999998 Q 5.5155832397460935 0.5184749999999999 5.528126989746093 0.4900424999999998 Q 5.540670739746094 0.46160999999999985 5.540670739746094 0.4214699999999999 Q 5.540670739746094 0.37965749999999987 5.526454489746094 0.3520612499999999 Q 5.512238239746094 0.3244649999999999 5.491331989746094 0.30941249999999987 Q 5.470425739746093 0.29435999999999984 5.450355739746094 0.29435999999999984 L 5.253000739746094 0.29435999999999984 L 5.253000739746094 0.5485799999999998 Z M 6.141746823486328 1.1975099999999999 L 6.141746823486328 0.010034999999999794 L 6.467884323486328 0.010034999999999794 L 6.467884323486328 1.1975099999999999 L 6.141746823486328 1.1975099999999999 Z M 7.0839590083007815 0.6138074999999998 L 7.0839590083007815 1.1975099999999999 L 6.757821508300782 1.1975099999999999 L 6.757821508300782 0.010034999999999794 L 7.012041508300781 0.010034999999999794 L 7.488704008300782 0.6138074999999998 L 7.488704008300782 0.010034999999999794 L 7.814841508300781 0.010034999999999794 L 7.814841508300781 1.1975099999999999 L 7.555604008300781 1.1975099999999999 L 7.0839590083007815 0.6138074999999998 Z M 8.618255792724609 1.2058725 Q 8.502853292724609 1.2058725 8.39832204272461 1.16489625 Q 8.293790792724609 1.1239199999999998 8.213510792724609 1.0444762499999998 Q 8.133230792724609 0.9650324999999998 8.08723704272461 0.85213875 Q 8.041243292724609 0.7392449999999999 8.041243292724609 0.5937374999999999 Q 8.041243292724609 0.4682999999999998 8.088073292724609 0.3612599999999999 Q 8.134903292724609 0.2542199999999999 8.21769204272461 0.1731037499999999 Q 8.30048079272461 0.09198749999999989 8.410865792724609 0.04682999999999993 Q 8.52125079272461 0.0016724999999999657 8.65003329272461 0.0016724999999999657 Q 8.81059329272461 0.0016724999999999657 8.94104829272461 0.07108124999999998 Q 9.071503292724609 0.14048999999999978 9.13505829272461 0.26090999999999986 L 8.89254579272461 0.44655749999999983 Q 8.85742329272461 0.3763124999999998 8.78717829272461 0.3336637499999999 Q 8.71693329272461 0.2910149999999999 8.63832579272461 0.2910149999999999 Q 8.57978829272461 0.2910149999999999 8.53128579272461 0.3144299999999999 Q 8.482783292724609 0.33784499999999984 8.44682454272461 0.37965749999999987 Q 8.410865792724609 0.4214699999999999 8.39163204272461 0.4791712499999998 Q 8.37239829272461 0.5368724999999999 8.37239829272461 0.6054449999999999 Q 8.37239829272461 0.6756899999999999 8.39246829272461 0.7325549999999998 Q 8.412538292724609 0.7894199999999998 8.44849704272461 0.83039625 Q 8.48445579272461 0.8713724999999999 8.53463079272461 0.8939512499999999 Q 8.584805792724609 0.9165299999999998 8.64668829272461 0.9165299999999998 Q 8.725295792724609 0.9165299999999998 8.79721329272461 0.8772262499999999 Q 8.86913079272461 0.8379224999999999 8.92766829272461 0.7660049999999998 L 8.92766829272461 1.08378 Q 8.793868292724609 1.2058725 8.618255792724609 1.2058725 Z M 8.910943292724609 0.7994549999999998 L 8.691845792724608 0.7994549999999998 L 8.691845792724608 0.5653049999999998 L 9.18021579272461 0.5653049999999998 L 9.18021579272461 1.1975099999999999 L 8.910943292724609 1.1975099999999999 L 8.910943292724609 0.7994549999999998 Z M 10.402358745117187 1.2058725 Q 10.286956245117187 1.2058725 10.182424995117188 1.16489625 Q 10.077893745117187 1.1239199999999998 9.997613745117187 1.0444762499999998 Q 9.917333745117187 0.9650324999999998 9.871339995117188 0.85213875 Q 9.825346245117187 0.7392449999999999 9.825346245117187 0.5937374999999999 Q 9.825346245117187 0.4682999999999998 9.872176245117187 0.3612599999999999 Q 9.919006245117187 0.2542199999999999 10.001794995117187 0.1731037499999999 Q 10.084583745117188 0.09198749999999989 10.194968745117187 0.04682999999999993 Q 10.305353745117188 0.0016724999999999657 10.434136245117188 0.0016724999999999657 Q 10.594696245117188 0.0016724999999999657 10.725151245117187 0.07108124999999998 Q 10.855606245117187 0.14048999999999978 10.919161245117188 0.26090999999999986 L 10.676648745117188 0.44655749999999983 Q 10.641526245117188 0.3763124999999998 10.571281245117188 0.3336637499999999 Q 10.501036245117188 0.2910149999999999 10.422428745117188 0.2910149999999999 Q 10.363891245117188 0.2910149999999999 10.315388745117188 0.3144299999999999 Q 10.266886245117187 0.33784499999999984 10.230927495117188 0.37965749999999987 Q 10.194968745117187 0.4214699999999999 10.175734995117187 0.4791712499999998 Q 10.156501245117187 0.5368724999999999 10.156501245117187 0.6054449999999999 Q 10.156501245117187 0.6756899999999999 10.176571245117188 0.7325549999999998 Q 10.196641245117187 0.7894199999999998 10.232599995117187 0.83039625 Q 10.268558745117188 0.8713724999999999 10.318733745117187 0.8939512499999999 Q 10.368908745117187 0.9165299999999998 10.430791245117188 0.9165299999999998 Q 10.509398745117187 0.9165299999999998 10.581316245117188 0.8772262499999999 Q 10.653233745117188 0.8379224999999999 10.711771245117188 0.7660049999999998 L 10.711771245117188 1.08378 Q 10.577971245117187 1.2058725 10.402358745117187 1.2058725 Z M 10.695046245117187 0.7994549999999998 L 10.475948745117186 0.7994549999999998 L 10.475948745117186 0.5653049999999998 L 10.964318745117188 0.5653049999999998 L 10.964318745117188 1.1975099999999999 L 10.695046245117187 1.1975099999999999 L 10.695046245117187 0.7994549999999998 Z M 11.745966030029297 1.2075449999999999 Q 11.610493530029297 1.2075449999999999 11.500108530029298 1.15653375 Q 11.389723530029297 1.1055224999999997 11.310279780029298 1.0193887499999998 Q 11.230836030029298 0.9332549999999998 11.188187280029297 0.8253787499999998 Q 11.145538530029297 0.7175024999999999 11.145538530029297 0.6020999999999999 Q 11.145538530029297 0.48335249999999985 11.190696030029297 0.3763124999999998 Q 11.235853530029297 0.2692724999999999 11.316969780029297 0.18481124999999987 Q 11.398086030029297 0.10034999999999994 11.509307280029297 0.051847499999999824 Q 11.620528530029297 0.0033449999999999314 11.752656030029298 0.0033449999999999314 Q 11.888128530029297 0.0033449999999999314 11.998513530029298 0.054356249999999884 Q 12.108898530029297 0.10536749999999984 12.187506030029297 0.19233749999999983 Q 12.266113530029298 0.27930749999999993 12.308762280029297 0.3871837499999998 Q 12.351411030029297 0.49505999999999983 12.351411030029297 0.6087899999999998 Q 12.351411030029297 0.7258649999999999 12.307089780029298 0.8329049999999998 Q 12.262768530029298 0.9399449999999998 12.181652280029297 1.0244062499999997 Q 12.100536030029298 1.1088675 11.990151030029297 1.1582062499999999 Q 11.879766030029298 1.2075449999999999 11.745966030029297 1.2075449999999999 Z M 11.476693530029298 0.6054449999999999 Q 11.476693530029298 0.6656549999999999 11.493418530029297 0.7216837499999998 Q 11.510143530029298 0.7777124999999998 11.543593530029298 0.8220337499999999 Q 11.577043530029297 0.8663549999999999 11.628054780029297 0.8922787499999998 Q 11.679066030029297 0.9182024999999998 11.749311030029297 0.9182024999999998 Q 11.819556030029297 0.9182024999999998 11.871403530029298 0.8914424999999999 Q 11.923251030029297 0.8646824999999998 11.955864780029298 0.8186887499999999 Q 11.988478530029298 0.7726949999999999 12.004367280029298 0.7166662499999998 Q 12.020256030029298 0.6606374999999999 12.020256030029298 0.6020999999999999 Q 12.020256030029298 0.5418899999999999 12.003531030029297 0.4866974999999999 Q 11.986806030029298 0.4315049999999999 11.953356030029298 0.3871837499999998 Q 11.919906030029297 0.34286249999999985 11.868058530029298 0.3177749999999999 Q 11.816211030029297 0.2926874999999999 11.747638530029297 0.2926874999999999 Q 11.677393530029297 0.2926874999999999 11.626382280029297 0.3194474999999999 Q 11.575371030029297 0.3462074999999999 11.541921030029297 0.39052874999999987 Q 11.508471030029298 0.43484999999999985 11.492582280029298 0.4908787499999999 Q 11.476693530029298 0.5469074999999999 11.476693530029298 0.6054449999999999 Z" fill="#006fbf" fill-rule="nonzero"></path></g><g><path d=" M 0.042693749999999996 1.9577801999999997 L 0.042693749999999996 1.8377426999999997 L 0.07919999999999999 1.8377426999999997 L 0.07919999999999999 1.9577801999999997 L 0.042693749999999996 1.9577801999999997 Z M 0.101475 1.9577801999999997 L 0.101475 1.8377426999999997 L 0.13798125 1.8377426999999997 L 0.13798125 1.9577801999999997 L 0.101475 1.9577801999999997 Z M 0.26574829101562497 1.8414551999999997 L 0.409298291015625 2.0778176999999998 L 0.5540857910156249 1.8414551999999997 L 0.6011107910156249 1.8414551999999997 L 0.4309545410156249 2.1174177 L 0.4309545410156249 2.2807676999999997 L 0.38764204101562494 2.2807676999999997 L 0.38764204101562494 2.1161801999999996 L 0.21810454101562496 1.8414551999999997 L 0.26574829101562497 1.8414551999999997 Z M 0.8414220520019529 2.28386145 Q 0.7950158020019529 2.28386145 0.7572720520019529 2.2652989499999996 Q 0.719528302001953 2.2467364499999998 0.6923033020019529 2.2148708249999998 Q 0.665078302001953 2.1830051999999998 0.6502283020019529 2.1430958249999996 Q 0.635378302001953 2.10318645 0.635378302001953 2.06111145 Q 0.635378302001953 2.0171802 0.6508470520019529 1.9772708249999997 Q 0.666315802001953 1.9373614499999998 0.694468927001953 1.9061145749999997 Q 0.722622052001953 1.8748676999999998 0.7603658020019529 1.8566145749999998 Q 0.798109552001953 1.8383614499999998 0.842040802001953 1.8383614499999998 Q 0.888447052001953 1.8383614499999998 0.9261908020019529 1.8575426999999998 Q 0.9639345520019529 1.8767239499999997 0.9908501770019529 1.9088989499999998 Q 1.0177658020019529 1.9410739499999998 1.032615802001953 1.9806739499999997 Q 1.047465802001953 2.02027395 1.047465802001953 2.0617302 Q 1.047465802001953 2.10566145 1.031997052001953 2.1455708249999996 Q 1.0165283020019529 2.1854801999999998 0.9886845520019529 2.2167270749999997 Q 0.960840802001953 2.2479739499999996 0.9230970520019529 2.2659176999999997 Q 0.885353302001953 2.28386145 0.8414220520019529 2.28386145 Z M 0.678690802001953 2.06111145 Q 0.678690802001953 2.0969989499999997 0.690447052001953 2.130102075 Q 0.7022033020019529 2.1632051999999997 0.723859552001953 2.188883325 Q 0.745515802001953 2.2145614499999997 0.7755251770019529 2.229720825 Q 0.8055345520019529 2.2448802 0.8414220520019529 2.2448802 Q 0.8791658020019529 2.2448802 0.9091751770019529 2.2291020749999997 Q 0.9391845520019529 2.21332395 0.9605314270019529 2.1870270749999996 Q 0.9818783020019529 2.1607301999999997 0.9930158020019528 2.12793645 Q 1.0041533020019529 2.0951427 1.0041533020019529 2.06111145 Q 1.0041533020019529 2.02522395 0.9923970520019529 1.9924301999999998 Q 0.9806408020019529 1.9596364499999996 0.9586751770019529 1.9336489499999998 Q 0.9367095520019529 1.9076614499999998 0.907009552001953 1.8928114499999997 Q 0.8773095520019529 1.8779614499999997 0.8414220520019529 1.8779614499999997 Q 0.8042970520019529 1.8779614499999997 0.7742876770019529 1.8934301999999998 Q 0.744278302001953 1.9088989499999998 0.7229314270019529 1.9351958249999996 Q 0.7015845520019529 1.9614926999999998 0.6901376770019529 1.9942864499999997 Q 0.678690802001953 2.0270802 0.678690802001953 2.06111145 Z M 1.3354794250488278 2.28386145 Q 1.2835044250488277 2.28386145 1.2476169250488278 2.2652989499999996 Q 1.2117294250488277 2.2467364499999998 1.1906919250488277 2.215489575 Q 1.1696544250488277 2.1842426999999995 1.1600638000488277 2.1446427 Q 1.1504731750488277 2.1050427 1.1504731750488277 2.0629676999999997 L 1.1504731750488277 1.8414551999999997 L 1.1931669250488277 1.8414551999999997 L 1.1931669250488277 2.0629676999999997 Q 1.1931669250488277 2.0969989499999997 1.2002825500488277 2.1297927 Q 1.2073981750488278 2.1625864499999996 1.2234856750488277 2.18857395 Q 1.2395731750488277 2.2145614499999997 1.2667981750488277 2.229720825 Q 1.2940231750488278 2.2448802 1.3348606750488277 2.2448802 Q 1.3769356750488277 2.2448802 1.4044700500488276 2.2291020749999997 Q 1.4320044250488277 2.21332395 1.4477825500488277 2.1873364499999997 Q 1.4635606750488277 2.16134895 1.4703669250488276 2.1288645749999997 Q 1.4771731750488277 2.0963801999999996 1.4771731750488277 2.0629676999999997 L 1.4771731750488277 1.8414551999999997 L 1.5204856750488278 1.8414551999999997 L 1.5204856750488278 2.0629676999999997 Q 1.5204856750488278 2.1068989499999997 1.5105856750488278 2.1471177 Q 1.5006856750488278 2.1873364499999997 1.4787200500488278 2.2176552 Q 1.4567544250488278 2.2479739499999996 1.4214856750488276 2.2659176999999997 Q 1.3862169250488277 2.28386145 1.3354794250488278 2.28386145 Z M 1.6513165557861322 2.2807676999999997 L 1.6513165557861322 1.8414551999999997 L 1.8369415557861322 1.8414551999999997 Q 1.8654040557861322 1.8414551999999997 1.8889165557861323 1.8532114499999999 Q 1.912429055786132 1.8649676999999998 1.9300634307861322 1.8850770749999999 Q 1.9476978057861323 1.9051864499999998 1.9572884307861322 1.9296270749999997 Q 1.9668790557861322 1.9540676999999997 1.9668790557861322 1.9794364499999997 Q 1.9668790557861322 2.0109926999999996 1.9548134307861322 2.03883645 Q 1.9427478057861323 2.0666801999999995 1.9207821807861323 2.08586145 Q 1.8988165557861323 2.1050427 1.8691165557861322 2.1112301999999996 L 1.9767790557861322 2.2807676999999997 L 1.9278978057861322 2.2807676999999997 L 1.8245665557861321 2.1186551999999996 L 1.6946290557861323 2.1186551999999996 L 1.6946290557861323 2.2807676999999997 L 1.6513165557861322 2.2807676999999997 Z M 1.6946290557861323 2.0802926999999998 L 1.8381790557861322 2.0802926999999998 Q 1.8641665557861322 2.0802926999999998 1.8833478057861321 2.06606145 Q 1.902529055786132 2.0518302 1.9130478057861322 2.0286270749999997 Q 1.9235665557861323 2.00542395 1.9235665557861323 1.9794364499999997 Q 1.9235665557861323 1.9528301999999997 1.9115009307861321 1.9302458249999996 Q 1.8994353057861322 1.9076614499999998 1.8793259307861323 1.8937395749999997 Q 1.8592165557861322 1.8798176999999998 1.8344665557861322 1.8798176999999998 L 1.6946290557861323 1.8798176999999998 L 1.6946290557861323 2.0802926999999998 Z M 2.5249284118652335 1.9237489499999998 Q 2.515647161865233 1.9132301999999997 2.503272161865233 1.9048770749999997 Q 2.490897161865233 1.8965239499999997 2.4754284118652334 1.8903364499999997 Q 2.4599596618652333 1.8841489499999997 2.442325286865233 1.8804364499999997 Q 2.424690911865233 1.8767239499999997 2.4048909118652335 1.8767239499999997 Q 2.3473471618652333 1.8767239499999997 2.3204315368652333 1.8986895749999997 Q 2.2935159118652333 1.9206551999999997 2.2935159118652333 1.9583989499999999 Q 2.2935159118652333 1.9843864499999997 2.3062002868652334 1.9992364499999997 Q 2.3188846618652335 2.0140864499999998 2.3461096618652335 2.0233676999999997 Q 2.3733346618652336 2.0326489499999996 2.415409661865233 2.0425489499999996 Q 2.4624346618652333 2.0524489499999996 2.4964659118652333 2.06606145 Q 2.530497161865233 2.0796739499999997 2.5490596618652335 2.102877075 Q 2.5676221618652333 2.1260801999999996 2.5676221618652333 2.1656801999999997 Q 2.5676221618652333 2.19599895 2.5558659118652334 2.21827395 Q 2.5441096618652335 2.2405489499999995 2.523072161865233 2.2553989499999996 Q 2.5020346618652334 2.2702489499999996 2.4729534118652334 2.2773645749999996 Q 2.4438721618652335 2.2844801999999995 2.4092221618652334 2.2844801999999995 Q 2.3751909118652335 2.2844801999999995 2.343944036865233 2.2773645749999996 Q 2.312697161865233 2.2702489499999996 2.2848534118652335 2.2563270749999997 Q 2.2570096618652333 2.2424052 2.2328784118652334 2.22074895 L 2.2545346618652333 2.1854801999999998 Q 2.2662909118652332 2.1978552 2.2826877868652335 2.2086833249999995 Q 2.2990846618652334 2.2195114499999997 2.3191940368652335 2.2281739499999995 Q 2.339303411865233 2.2368364499999998 2.3625065368652334 2.2414770749999997 Q 2.385709661865233 2.2461176999999997 2.410459661865233 2.2461176999999997 Q 2.4630534118652334 2.2461176999999997 2.4924440368652334 2.2269364499999997 Q 2.5218346618652334 2.2077552 2.5218346618652334 2.1700114499999996 Q 2.5218346618652334 2.1427864499999996 2.5069846618652334 2.1263895749999997 Q 2.4921346618652334 2.1099927 2.4624346618652333 2.0994739499999997 Q 2.4327346618652332 2.0889551999999996 2.3894221618652334 2.0790551999999995 Q 2.3436346618652335 2.06853645 2.3120784118652336 2.0555426999999997 Q 2.280522161865233 2.0425489499999996 2.2647440368652334 2.0212020749999997 Q 2.248965911865233 1.9998551999999998 2.248965911865233 1.9645864499999997 Q 2.248965911865233 1.9237489499999998 2.2690752868652333 1.8955958249999998 Q 2.2891846618652334 1.8674426999999998 2.324453411865233 1.8529020749999998 Q 2.3597221618652333 1.8383614499999998 2.405509661865233 1.8383614499999998 Q 2.434590911865233 1.8383614499999998 2.4596502868652332 1.8442395749999998 Q 2.4847096618652333 1.8501176999999998 2.506056536865233 1.8612551999999998 Q 2.527403411865233 1.8723926999999998 2.5459659118652334 1.8890989499999997 L 2.5249284118652335 1.9237489499999998 Z M 2.8500782135009755 2.28386145 Q 2.798103213500976 2.28386145 2.7622157135009755 2.2652989499999996 Q 2.7263282135009757 2.2467364499999998 2.705290713500976 2.215489575 Q 2.6842532135009756 2.1842426999999995 2.6746625885009756 2.1446427 Q 2.6650719635009756 2.1050427 2.6650719635009756 2.0629676999999997 L 2.6650719635009756 1.8414551999999997 L 2.707765713500976 1.8414551999999997 L 2.707765713500976 2.0629676999999997 Q 2.707765713500976 2.0969989499999997 2.714881338500976 2.1297927 Q 2.7219969635009758 2.1625864499999996 2.7380844635009756 2.18857395 Q 2.754171963500976 2.2145614499999997 2.7813969635009754 2.229720825 Q 2.8086219635009755 2.2448802 2.849459463500976 2.2448802 Q 2.8915344635009754 2.2448802 2.9190688385009755 2.2291020749999997 Q 2.9466032135009756 2.21332395 2.9623813385009754 2.1873364499999997 Q 2.9781594635009756 2.16134895 2.9849657135009755 2.1288645749999997 Q 2.991771963500976 2.0963801999999996 2.991771963500976 2.0629676999999997 L 2.991771963500976 1.8414551999999997 L 3.0350844635009757 1.8414551999999997 L 3.0350844635009757 2.0629676999999997 Q 3.0350844635009757 2.1068989499999997 3.0251844635009757 2.1471177 Q 3.0152844635009757 2.1873364499999997 2.9933188385009757 2.2176552 Q 2.9713532135009757 2.2479739499999996 2.9360844635009755 2.2659176999999997 Q 2.900815713500976 2.28386145 2.8500782135009755 2.28386145 Z M 3.13683409423828 2.0580176999999997 Q 3.13683409423828 2.0177989499999995 3.1507559692382805 1.9791270749999996 Q 3.1646778442382804 1.9404551999999997 3.1912840942382803 1.9085895749999997 Q 3.2178903442382802 1.8767239499999997 3.25687159423828 1.8578520749999998 Q 3.29585284423828 1.8389801999999997 3.3453528442382803 1.8389801999999997 Q 3.4041340942382803 1.8389801999999997 3.4458997192382803 1.8658958249999997 Q 3.4876653442382803 1.8928114499999997 3.5074653442382804 1.9348864499999998 L 3.4734340942382804 1.9559239499999999 Q 3.4592028442382805 1.9268426999999997 3.43754659423828 1.9098270749999997 Q 3.41589034423828 1.8928114499999997 3.39144971923828 1.8853864499999997 Q 3.36700909423828 1.8779614499999997 3.3428778442382803 1.8779614499999997 Q 3.30327784423828 1.8779614499999997 3.2729590942382805 1.8937395749999997 Q 3.2426403442382803 1.9095176999999999 3.2219122192382805 1.9358145749999998 Q 3.2011840942382803 1.9621114499999996 3.19066534423828 1.9945958249999998 Q 3.1801465942382805 2.0270802 3.1801465942382805 2.0604926999999997 Q 3.1801465942382805 2.0969989499999997 3.1925215942382805 2.1304114499999995 Q 3.2048965942382805 2.16382395 3.22717159423828 2.1895020749999996 Q 3.24944659423828 2.2151802 3.2794559692382803 2.230339575 Q 3.3094653442382804 2.2454989499999995 3.34473409423828 2.2454989499999995 Q 3.36948409423828 2.2454989499999995 3.3954715942382805 2.2368364499999998 Q 3.4214590942382803 2.2281739499999995 3.4440434692382804 2.2102302 Q 3.4666278442382805 2.1922864499999997 3.4802403442382803 2.16382395 L 3.51612784423828 2.1823864499999996 Q 3.5025153442382804 2.2151802 3.4740528442382805 2.2380739499999995 Q 3.4455903442382803 2.2609676999999997 3.41063096923828 2.2727239499999996 Q 3.3756715942382804 2.2844801999999995 3.34225909423828 2.2844801999999995 Q 3.2970903442382804 2.2844801999999995 3.25934659423828 2.2649895749999995 Q 3.2216028442382805 2.2454989499999995 3.1940684692382804 2.213014575 Q 3.1665340942382803 2.1805301999999998 3.15168409423828 2.140002075 Q 3.13683409423828 2.0994739499999997 3.13683409423828 2.0580176999999997 Z M 3.583829910278319 2.0580176999999997 Q 3.583829910278319 2.0177989499999995 3.5977517852783194 1.9791270749999996 Q 3.6116736602783193 1.9404551999999997 3.638279910278319 1.9085895749999997 Q 3.664886160278319 1.8767239499999997 3.703867410278319 1.8578520749999998 Q 3.742848660278319 1.8389801999999997 3.792348660278319 1.8389801999999997 Q 3.851129910278319 1.8389801999999997 3.892895535278319 1.8658958249999997 Q 3.9346611602783192 1.8928114499999997 3.9544611602783193 1.9348864499999998 L 3.9204299102783193 1.9559239499999999 Q 3.9061986602783194 1.9268426999999997 3.8845424102783195 1.9098270749999997 Q 3.862886160278319 1.8928114499999997 3.838445535278319 1.8853864499999997 Q 3.814004910278319 1.8779614499999997 3.789873660278319 1.8779614499999997 Q 3.750273660278319 1.8779614499999997 3.7199549102783194 1.8937395749999997 Q 3.689636160278319 1.9095176999999999 3.6689080352783194 1.9358145749999998 Q 3.6481799102783192 1.9621114499999996 3.637661160278319 1.9945958249999998 Q 3.6271424102783194 2.0270802 3.6271424102783194 2.0604926999999997 Q 3.6271424102783194 2.0969989499999997 3.6395174102783194 2.1304114499999995 Q 3.6518924102783195 2.16382395 3.674167410278319 2.1895020749999996 Q 3.696442410278319 2.2151802 3.726451785278319 2.230339575 Q 3.7564611602783193 2.2454989499999995 3.791729910278319 2.2454989499999995 Q 3.816479910278319 2.2454989499999995 3.8424674102783194 2.2368364499999998 Q 3.8684549102783192 2.2281739499999995 3.8910392852783193 2.2102302 Q 3.9136236602783194 2.1922864499999997 3.9272361602783192 2.16382395 L 3.963123660278319 2.1823864499999996 Q 3.9495111602783193 2.2151802 3.921048660278319 2.2380739499999995 Q 3.892586160278319 2.2609676999999997 3.8576267852783195 2.2727239499999996 Q 3.8226674102783194 2.2844801999999995 3.789254910278319 2.2844801999999995 Q 3.7440861602783193 2.2844801999999995 3.706342410278319 2.2649895749999995 Q 3.6685986602783194 2.2454989499999995 3.6410642852783193 2.213014575 Q 3.613529910278319 2.1805301999999998 3.598679910278319 2.140002075 Q 3.583829910278319 2.0994739499999997 3.583829910278319 2.0580176999999997 Z M 4.360035772705077 2.2424052 L 4.360035772705077 2.2807676999999997 L 4.064892022705077 2.2807676999999997 L 4.064892022705077 1.8414551999999997 L 4.3544670227050775 1.8414551999999997 L 4.3544670227050775 1.8798176999999998 L 4.108204522705077 1.8798176999999998 L 4.108204522705077 2.0382176999999997 L 4.322910772705077 2.0382176999999997 L 4.322910772705077 2.0747239499999997 L 4.108204522705077 2.0747239499999997 L 4.108204522705077 2.2424052 L 4.360035772705077 2.2424052 Z M 4.723501547241209 1.9237489499999998 Q 4.7142202972412095 1.9132301999999997 4.70184529724121 1.9048770749999997 Q 4.6894702972412095 1.8965239499999997 4.674001547241209 1.8903364499999997 Q 4.65853279724121 1.8841489499999997 4.64089842224121 1.8804364499999997 Q 4.62326404724121 1.8767239499999997 4.60346404724121 1.8767239499999997 Q 4.54592029724121 1.8767239499999997 4.51900467224121 1.8986895749999997 Q 4.49208904724121 1.9206551999999997 4.49208904724121 1.9583989499999999 Q 4.49208904724121 1.9843864499999997 4.504773422241209 1.9992364499999997 Q 4.517457797241209 2.0140864499999998 4.54468279724121 2.0233676999999997 Q 4.571907797241209 2.0326489499999996 4.61398279724121 2.0425489499999996 Q 4.66100779724121 2.0524489499999996 4.69503904724121 2.06606145 Q 4.7290702972412095 2.0796739499999997 4.747632797241209 2.102877075 Q 4.76619529724121 2.1260801999999996 4.76619529724121 2.1656801999999997 Q 4.76619529724121 2.19599895 4.75443904724121 2.21827395 Q 4.742682797241209 2.2405489499999995 4.72164529724121 2.2553989499999996 Q 4.70060779724121 2.2702489499999996 4.67152654724121 2.2773645749999996 Q 4.64244529724121 2.2844801999999995 4.60779529724121 2.2844801999999995 Q 4.57376404724121 2.2844801999999995 4.54251717224121 2.2773645749999996 Q 4.51127029724121 2.2702489499999996 4.483426547241209 2.2563270749999997 Q 4.45558279724121 2.2424052 4.43145154724121 2.22074895 L 4.45310779724121 2.1854801999999998 Q 4.4648640472412096 2.1978552 4.481260922241209 2.2086833249999995 Q 4.497657797241209 2.2195114499999997 4.51776717224121 2.2281739499999995 Q 4.5378765472412095 2.2368364499999998 4.56107967224121 2.2414770749999997 Q 4.58428279724121 2.2461176999999997 4.60903279724121 2.2461176999999997 Q 4.66162654724121 2.2461176999999997 4.691017172241209 2.2269364499999997 Q 4.72040779724121 2.2077552 4.72040779724121 2.1700114499999996 Q 4.72040779724121 2.1427864499999996 4.70555779724121 2.1263895749999997 Q 4.69070779724121 2.1099927 4.66100779724121 2.0994739499999997 Q 4.63130779724121 2.0889551999999996 4.58799529724121 2.0790551999999995 Q 4.542207797241209 2.06853645 4.51065154724121 2.0555426999999997 Q 4.4790952972412095 2.0425489499999996 4.46331717224121 2.0212020749999997 Q 4.44753904724121 1.9998551999999998 4.44753904724121 1.9645864499999997 Q 4.44753904724121 1.9237489499999998 4.46764842224121 1.8955958249999998 Q 4.487757797241209 1.8674426999999998 4.5230265472412094 1.8529020749999998 Q 4.55829529724121 1.8383614499999998 4.60408279724121 1.8383614499999998 Q 4.63316404724121 1.8383614499999998 4.6582234222412096 1.8442395749999998 Q 4.68328279724121 1.8501176999999998 4.70462967224121 1.8612551999999998 Q 4.72597654724121 1.8723926999999998 4.74453904724121 1.8890989499999997 L 4.723501547241209 1.9237489499999998 Z M 5.126613848876952 1.9237489499999998 Q 5.117332598876952 1.9132301999999997 5.104957598876952 1.9048770749999997 Q 5.092582598876952 1.8965239499999997 5.077113848876952 1.8903364499999997 Q 5.061645098876952 1.8841489499999997 5.044010723876952 1.8804364499999997 Q 5.026376348876952 1.8767239499999997 5.006576348876952 1.8767239499999997 Q 4.949032598876952 1.8767239499999997 4.922116973876952 1.8986895749999997 Q 4.895201348876952 1.9206551999999997 4.895201348876952 1.9583989499999999 Q 4.895201348876952 1.9843864499999997 4.9078857238769515 1.9992364499999997 Q 4.920570098876952 2.0140864499999998 4.947795098876952 2.0233676999999997 Q 4.975020098876952 2.0326489499999996 5.017095098876952 2.0425489499999996 Q 5.064120098876952 2.0524489499999996 5.098151348876952 2.06606145 Q 5.132182598876952 2.0796739499999997 5.150745098876952 2.102877075 Q 5.169307598876952 2.1260801999999996 5.169307598876952 2.1656801999999997 Q 5.169307598876952 2.19599895 5.157551348876952 2.21827395 Q 5.145795098876952 2.2405489499999995 5.124757598876952 2.2553989499999996 Q 5.103720098876952 2.2702489499999996 5.074638848876952 2.2773645749999996 Q 5.045557598876952 2.2844801999999995 5.010907598876952 2.2844801999999995 Q 4.976876348876952 2.2844801999999995 4.945629473876952 2.2773645749999996 Q 4.914382598876952 2.2702489499999996 4.886538848876952 2.2563270749999997 Q 4.858695098876952 2.2424052 4.834563848876952 2.22074895 L 4.856220098876952 2.1854801999999998 Q 4.867976348876952 2.1978552 4.884373223876952 2.2086833249999995 Q 4.900770098876952 2.2195114499999997 4.920879473876952 2.2281739499999995 Q 4.940988848876952 2.2368364499999998 4.964191973876952 2.2414770749999997 Q 4.987395098876952 2.2461176999999997 5.012145098876952 2.2461176999999997 Q 5.064738848876952 2.2461176999999997 5.094129473876952 2.2269364499999997 Q 5.123520098876952 2.2077552 5.123520098876952 2.1700114499999996 Q 5.123520098876952 2.1427864499999996 5.108670098876952 2.1263895749999997 Q 5.093820098876952 2.1099927 5.064120098876952 2.0994739499999997 Q 5.034420098876952 2.0889551999999996 4.991107598876952 2.0790551999999995 Q 4.945320098876952 2.06853645 4.913763848876952 2.0555426999999997 Q 4.882207598876952 2.0425489499999996 4.866429473876952 2.0212020749999997 Q 4.850651348876952 1.9998551999999998 4.850651348876952 1.9645864499999997 Q 4.850651348876952 1.9237489499999998 4.870760723876952 1.8955958249999998 Q 4.890870098876952 1.8674426999999998 4.926138848876952 1.8529020749999998 Q 4.961407598876952 1.8383614499999998 5.007195098876952 1.8383614499999998 Q 5.036276348876952 1.8383614499999998 5.061335723876952 1.8442395749999998 Q 5.086395098876952 1.8501176999999998 5.107741973876952 1.8612551999999998 Q 5.129088848876952 1.8723926999999998 5.147651348876952 1.8890989499999997 L 5.126613848876952 1.9237489499999998 Z M 5.4582257812499995 2.2807676999999997 L 5.4582257812499995 1.8414551999999997 L 5.501538281249999 1.8414551999999997 L 5.501538281249999 2.2807676999999997 L 5.4582257812499995 2.2807676999999997 Z M 5.895982644653319 1.9237489499999998 Q 5.886701394653319 1.9132301999999997 5.87432639465332 1.9048770749999997 Q 5.861951394653319 1.8965239499999997 5.846482644653319 1.8903364499999997 Q 5.83101389465332 1.8841489499999997 5.81337951965332 1.8804364499999997 Q 5.79574514465332 1.8767239499999997 5.77594514465332 1.8767239499999997 Q 5.71840139465332 1.8767239499999997 5.69148576965332 1.8986895749999997 Q 5.66457014465332 1.9206551999999997 5.66457014465332 1.9583989499999999 Q 5.66457014465332 1.9843864499999997 5.677254519653319 1.9992364499999997 Q 5.689938894653319 2.0140864499999998 5.71716389465332 2.0233676999999997 Q 5.744388894653319 2.0326489499999996 5.78646389465332 2.0425489499999996 Q 5.833488894653319 2.0524489499999996 5.867520144653319 2.06606145 Q 5.901551394653319 2.0796739499999997 5.920113894653319 2.102877075 Q 5.93867639465332 2.1260801999999996 5.93867639465332 2.1656801999999997 Q 5.93867639465332 2.19599895 5.9269201446533195 2.21827395 Q 5.915163894653319 2.2405489499999995 5.89412639465332 2.2553989499999996 Q 5.8730888946533195 2.2702489499999996 5.84400764465332 2.2773645749999996 Q 5.81492639465332 2.2844801999999995 5.7802763946533195 2.2844801999999995 Q 5.74624514465332 2.2844801999999995 5.71499826965332 2.2773645749999996 Q 5.68375139465332 2.2702489499999996 5.655907644653319 2.2563270749999997 Q 5.6280638946533195 2.2424052 5.6039326446533195 2.22074895 L 5.62558889465332 2.1854801999999998 Q 5.637345144653319 2.1978552 5.653742019653319 2.2086833249999995 Q 5.670138894653319 2.2195114499999997 5.69024826965332 2.2281739499999995 Q 5.710357644653319 2.2368364499999998 5.7335607696533195 2.2414770749999997 Q 5.75676389465332 2.2461176999999997 5.78151389465332 2.2461176999999997 Q 5.8341076446533195 2.2461176999999997 5.863498269653319 2.2269364499999997 Q 5.8928888946533196 2.2077552 5.8928888946533196 2.1700114499999996 Q 5.8928888946533196 2.1427864499999996 5.8780388946533195 2.1263895749999997 Q 5.8631888946533195 2.1099927 5.833488894653319 2.0994739499999997 Q 5.803788894653319 2.0889551999999996 5.7604763946533195 2.0790551999999995 Q 5.714688894653319 2.06853645 5.68313264465332 2.0555426999999997 Q 5.651576394653319 2.0425489499999996 5.6357982696533195 2.0212020749999997 Q 5.62002014465332 1.9998551999999998 5.62002014465332 1.9645864499999997 Q 5.62002014465332 1.9237489499999998 5.640129519653319 1.8955958249999998 Q 5.660238894653319 1.8674426999999998 5.695507644653319 1.8529020749999998 Q 5.7307763946533194 1.8383614499999998 5.77656389465332 1.8383614499999998 Q 5.80564514465332 1.8383614499999998 5.830704519653319 1.8442395749999998 Q 5.85576389465332 1.8501176999999998 5.87711076965332 1.8612551999999998 Q 5.89845764465332 1.8723926999999998 5.9170201446533195 1.8890989499999997 L 5.895982644653319 1.9237489499999998 Z M 6.404557077026367 2.28386145 Q 6.358150827026367 2.28386145 6.320407077026367 2.2652989499999996 Q 6.282663327026366 2.2467364499999998 6.255438327026367 2.2148708249999998 Q 6.228213327026367 2.1830051999999998 6.213363327026367 2.1430958249999996 Q 6.198513327026367 2.10318645 6.198513327026367 2.06111145 Q 6.198513327026367 2.0171802 6.213982077026367 1.9772708249999997 Q 6.229450827026366 1.9373614499999998 6.257603952026367 1.9061145749999997 Q 6.285757077026367 1.8748676999999998 6.323500827026367 1.8566145749999998 Q 6.361244577026366 1.8383614499999998 6.405175827026366 1.8383614499999998 Q 6.451582077026367 1.8383614499999998 6.4893258270263665 1.8575426999999998 Q 6.527069577026367 1.8767239499999997 6.553985202026367 1.9088989499999998 Q 6.580900827026367 1.9410739499999998 6.595750827026366 1.9806739499999997 Q 6.610600827026366 2.02027395 6.610600827026366 2.0617302 Q 6.610600827026366 2.10566145 6.595132077026367 2.1455708249999996 Q 6.579663327026367 2.1854801999999998 6.551819577026366 2.2167270749999997 Q 6.523975827026367 2.2479739499999996 6.486232077026367 2.2659176999999997 Q 6.448488327026367 2.28386145 6.404557077026367 2.28386145 Z M 6.241825827026367 2.06111145 Q 6.241825827026367 2.0969989499999997 6.253582077026366 2.130102075 Q 6.265338327026367 2.1632051999999997 6.286994577026367 2.188883325 Q 6.308650827026367 2.2145614499999997 6.338660202026367 2.229720825 Q 6.368669577026367 2.2448802 6.404557077026367 2.2448802 Q 6.442300827026367 2.2448802 6.4723102020263665 2.2291020749999997 Q 6.502319577026367 2.21332395 6.523666452026367 2.1870270749999996 Q 6.545013327026367 2.1607301999999997 6.556150827026367 2.12793645 Q 6.5672883270263664 2.0951427 6.5672883270263664 2.06111145 Q 6.5672883270263664 2.02522395 6.555532077026367 1.9924301999999998 Q 6.543775827026367 1.9596364499999996 6.521810202026367 1.9336489499999998 Q 6.499844577026367 1.9076614499999998 6.470144577026367 1.8928114499999997 Q 6.4404445770263665 1.8779614499999997 6.404557077026367 1.8779614499999997 Q 6.367432077026367 1.8779614499999997 6.337422702026367 1.8934301999999998 Q 6.307413327026366 1.9088989499999998 6.2860664520263665 1.9351958249999996 Q 6.264719577026367 1.9614926999999998 6.253272702026367 1.9942864499999997 Q 6.241825827026367 2.0270802 6.241825827026367 2.06111145 Z M 6.898614450073241 2.28386145 Q 6.8466394500732415 2.28386145 6.810751950073241 2.2652989499999996 Q 6.774864450073241 2.2467364499999998 6.7538269500732415 2.215489575 Q 6.732789450073241 2.1842426999999995 6.723198825073242 2.1446427 Q 6.713608200073241 2.1050427 6.713608200073241 2.0629676999999997 L 6.713608200073241 1.8414551999999997 L 6.756301950073241 1.8414551999999997 L 6.756301950073241 2.0629676999999997 Q 6.756301950073241 2.0969989499999997 6.763417575073241 2.1297927 Q 6.770533200073241 2.1625864499999996 6.786620700073241 2.18857395 Q 6.8027082000732415 2.2145614499999997 6.829933200073241 2.229720825 Q 6.857158200073242 2.2448802 6.897995700073241 2.2448802 Q 6.940070700073242 2.2448802 6.967605075073242 2.2291020749999997 Q 6.995139450073241 2.21332395 7.0109175750732415 2.1873364499999997 Q 7.026695700073241 2.16134895 7.033501950073242 2.1288645749999997 Q 7.040308200073241 2.0963801999999996 7.040308200073241 2.0629676999999997 L 7.040308200073241 1.8414551999999997 L 7.083620700073241 1.8414551999999997 L 7.083620700073241 2.0629676999999997 Q 7.083620700073241 2.1068989499999997 7.073720700073241 2.1471177 Q 7.063820700073241 2.1873364499999997 7.041855075073241 2.2176552 Q 7.019889450073241 2.2479739499999996 6.984620700073242 2.2659176999999997 Q 6.9493519500732415 2.28386145 6.898614450073241 2.28386145 Z M 7.214451580810546 2.2807676999999997 L 7.214451580810546 1.8414551999999997 L 7.400076580810546 1.8414551999999997 Q 7.428539080810546 1.8414551999999997 7.452051580810545 1.8532114499999999 Q 7.475564080810545 1.8649676999999998 7.493198455810545 1.8850770749999999 Q 7.510832830810545 1.9051864499999998 7.520423455810546 1.9296270749999997 Q 7.530014080810545 1.9540676999999997 7.530014080810545 1.9794364499999997 Q 7.530014080810545 2.0109926999999996 7.517948455810545 2.03883645 Q 7.505882830810545 2.0666801999999995 7.483917205810545 2.08586145 Q 7.461951580810545 2.1050427 7.432251580810545 2.1112301999999996 L 7.539914080810545 2.2807676999999997 L 7.491032830810545 2.2807676999999997 L 7.387701580810545 2.1186551999999996 L 7.257764080810546 2.1186551999999996 L 7.257764080810546 2.2807676999999997 L 7.214451580810546 2.2807676999999997 Z M 7.257764080810546 2.0802926999999998 L 7.401314080810546 2.0802926999999998 Q 7.427301580810545 2.0802926999999998 7.446482830810545 2.06606145 Q 7.465664080810545 2.0518302 7.476182830810545 2.0286270749999997 Q 7.4867015808105455 2.00542395 7.4867015808105455 1.9794364499999997 Q 7.4867015808105455 1.9528301999999997 7.4746359558105455 1.9302458249999996 Q 7.4625703308105455 1.9076614499999998 7.442460955810546 1.8937395749999997 Q 7.422351580810545 1.8798176999999998 7.397601580810545 1.8798176999999998 L 7.257764080810546 1.8798176999999998 L 7.257764080810546 2.0802926999999998 Z M 8.125155807495116 1.8798176999999998 L 7.968612057495116 1.8798176999999998 L 7.968612057495116 2.2807676999999997 L 7.925299557495116 2.2807676999999997 L 7.925299557495116 1.8798176999999998 L 7.768755807495116 1.8798176999999998 L 7.768755807495116 1.8414551999999997 L 8.125155807495116 1.8414551999999997 L 8.125155807495116 1.8798176999999998 Z M 8.379747262573241 2.28386145 Q 8.333341012573241 2.28386145 8.29559726257324 2.2652989499999996 Q 8.257853512573242 2.2467364499999998 8.230628512573242 2.2148708249999998 Q 8.20340351257324 2.1830051999999998 8.188553512573241 2.1430958249999996 Q 8.17370351257324 2.10318645 8.17370351257324 2.06111145 Q 8.17370351257324 2.0171802 8.18917226257324 1.9772708249999997 Q 8.20464101257324 1.9373614499999998 8.232794137573242 1.9061145749999997 Q 8.260947262573241 1.8748676999999998 8.298691012573242 1.8566145749999998 Q 8.33643476257324 1.8383614499999998 8.38036601257324 1.8383614499999998 Q 8.426772262573241 1.8383614499999998 8.464516012573242 1.8575426999999998 Q 8.50225976257324 1.8767239499999997 8.529175387573241 1.9088989499999998 Q 8.55609101257324 1.9410739499999998 8.570941012573241 1.9806739499999997 Q 8.58579101257324 2.02027395 8.58579101257324 2.0617302 Q 8.58579101257324 2.10566145 8.57032226257324 2.1455708249999996 Q 8.55485351257324 2.1854801999999998 8.527009762573242 2.2167270749999997 Q 8.499166012573241 2.2479739499999996 8.46142226257324 2.2659176999999997 Q 8.423678512573241 2.28386145 8.379747262573241 2.28386145 Z M 8.217016012573241 2.06111145 Q 8.217016012573241 2.0969989499999997 8.22877226257324 2.130102075 Q 8.240528512573242 2.1632051999999997 8.262184762573241 2.188883325 Q 8.283841012573241 2.2145614499999997 8.313850387573241 2.229720825 Q 8.34385976257324 2.2448802 8.379747262573241 2.2448802 Q 8.41749101257324 2.2448802 8.44750038757324 2.2291020749999997 Q 8.477509762573241 2.21332395 8.49885663757324 2.1870270749999996 Q 8.520203512573241 2.1607301999999997 8.531341012573241 2.12793645 Q 8.542478512573242 2.0951427 8.542478512573242 2.06111145 Q 8.542478512573242 2.02522395 8.53072226257324 1.9924301999999998 Q 8.518966012573241 1.9596364499999996 8.497000387573241 1.9336489499999998 Q 8.475034762573241 1.9076614499999998 8.445334762573241 1.8928114499999997 Q 8.41563476257324 1.8779614499999997 8.379747262573241 1.8779614499999997 Q 8.342622262573242 1.8779614499999997 8.312612887573241 1.8934301999999998 Q 8.28260351257324 1.9088989499999998 8.261256637573242 1.9351958249999996 Q 8.239909762573241 1.9614926999999998 8.22846288757324 1.9942864499999997 Q 8.217016012573241 2.0270802 8.217016012573241 2.06111145 Z M 8.694985885620117 2.2807676999999997 L 8.694985885620117 1.8414551999999997 L 8.876898385620116 1.8414551999999997 Q 8.905360885620116 1.8414551999999997 8.929182760620117 1.8532114499999999 Q 8.953004635620117 1.8649676999999998 8.970329635620116 1.8850770749999999 Q 8.987654635620116 1.9051864499999998 8.997554635620116 1.9296270749999997 Q 9.007454635620116 1.9540676999999997 9.007454635620116 1.9794364499999997 Q 9.007454635620116 2.01532395 8.991676510620117 2.047189575 Q 8.975898385620116 2.0790551999999995 8.947435885620116 2.0988551999999996 Q 8.918973385620117 2.1186551999999996 8.880610885620117 2.1186551999999996 L 8.738298385620116 2.1186551999999996 L 8.738298385620116 2.2807676999999997 L 8.694985885620117 2.2807676999999997 Z M 8.738298385620116 2.0802926999999998 L 8.878754635620117 2.0802926999999998 Q 8.904742135620117 2.0802926999999998 8.923923385620116 2.06606145 Q 8.943104635620116 2.0518302 8.953623385620116 2.02893645 Q 8.964142135620117 2.0060426999999996 8.964142135620117 1.9794364499999997 Q 8.964142135620117 1.9522114499999996 8.951767135620116 1.9293176999999997 Q 8.939392135620116 1.9064239499999998 8.919282760620117 1.8931208249999998 Q 8.899173385620117 1.8798176999999998 8.875042135620117 1.8798176999999998 L 8.738298385620116 1.8798176999999998 L 8.738298385620116 2.0802926999999998 Z M 9.27654351196289 2.2807676999999997 L 9.27654351196289 1.8414551999999997 L 9.45845601196289 1.8414551999999997 Q 9.48691851196289 1.8414551999999997 9.51074038696289 1.8532114499999999 Q 9.53456226196289 1.8649676999999998 9.55188726196289 1.8850770749999999 Q 9.569212261962889 1.9051864499999998 9.579112261962889 1.9296270749999997 Q 9.589012261962889 1.9540676999999997 9.589012261962889 1.9794364499999997 Q 9.589012261962889 2.01532395 9.57323413696289 2.047189575 Q 9.55745601196289 2.0790551999999995 9.52899351196289 2.0988551999999996 Q 9.50053101196289 2.1186551999999996 9.46216851196289 2.1186551999999996 L 9.319856011962889 2.1186551999999996 L 9.319856011962889 2.2807676999999997 L 9.27654351196289 2.2807676999999997 Z M 9.319856011962889 2.0802926999999998 L 9.46031226196289 2.0802926999999998 Q 9.48629976196289 2.0802926999999998 9.505481011962889 2.06606145 Q 9.52466226196289 2.0518302 9.535181011962889 2.02893645 Q 9.54569976196289 2.0060426999999996 9.54569976196289 1.9794364499999997 Q 9.54569976196289 1.9522114499999996 9.53332476196289 1.9293176999999997 Q 9.52094976196289 1.9064239499999998 9.50084038696289 1.8931208249999998 Q 9.48073101196289 1.8798176999999998 9.45659976196289 1.8798176999999998 L 9.319856011962889 1.8798176999999998 L 9.319856011962889 2.0802926999999998 Z M 9.688908361816406 2.2807676999999997 L 9.688908361816406 1.8414551999999997 L 9.874533361816406 1.8414551999999997 Q 9.902995861816406 1.8414551999999997 9.926508361816406 1.8532114499999999 Q 9.950020861816405 1.8649676999999998 9.967655236816405 1.8850770749999999 Q 9.985289611816405 1.9051864499999998 9.994880236816405 1.9296270749999997 Q 10.004470861816406 1.9540676999999997 10.004470861816406 1.9794364499999997 Q 10.004470861816406 2.0109926999999996 9.992405236816406 2.03883645 Q 9.980339611816406 2.0666801999999995 9.958373986816406 2.08586145 Q 9.936408361816406 2.1050427 9.906708361816406 2.1112301999999996 L 10.014370861816406 2.2807676999999997 L 9.965489611816405 2.2807676999999997 L 9.862158361816405 2.1186551999999996 L 9.732220861816405 2.1186551999999996 L 9.732220861816405 2.2807676999999997 L 9.688908361816406 2.2807676999999997 Z M 9.732220861816405 2.0802926999999998 L 9.875770861816406 2.0802926999999998 Q 9.901758361816405 2.0802926999999998 9.920939611816406 2.06606145 Q 9.940120861816405 2.0518302 9.950639611816406 2.0286270749999997 Q 9.961158361816405 2.00542395 9.961158361816405 1.9794364499999997 Q 9.961158361816405 1.9528301999999997 9.949092736816405 1.9302458249999996 Q 9.937027111816406 1.9076614499999998 9.916917736816405 1.8937395749999997 Q 9.896808361816406 1.8798176999999998 9.872058361816405 1.8798176999999998 L 9.732220861816405 1.8798176999999998 L 9.732220861816405 2.0802926999999998 Z M 10.120458087158202 2.2807676999999997 L 10.120458087158202 1.8414551999999997 L 10.1637705871582 1.8414551999999997 L 10.1637705871582 2.2807676999999997 L 10.120458087158202 2.2807676999999997 Z M 10.478396200561523 2.28386145 Q 10.431989950561523 2.28386145 10.394246200561522 2.2652989499999996 Q 10.356502450561523 2.2467364499999998 10.329277450561523 2.2148708249999998 Q 10.302052450561522 2.1830051999999998 10.287202450561523 2.1430958249999996 Q 10.272352450561522 2.10318645 10.272352450561522 2.06111145 Q 10.272352450561522 2.0171802 10.287821200561522 1.9772708249999997 Q 10.303289950561522 1.9373614499999998 10.331443075561523 1.9061145749999997 Q 10.359596200561523 1.8748676999999998 10.397339950561523 1.8566145749999998 Q 10.435083700561522 1.8383614499999998 10.479014950561522 1.8383614499999998 Q 10.525421200561523 1.8383614499999998 10.563164950561523 1.8575426999999998 Q 10.600908700561522 1.8767239499999997 10.627824325561523 1.9088989499999998 Q 10.654739950561522 1.9410739499999998 10.669589950561523 1.9806739499999997 Q 10.684439950561522 2.02027395 10.684439950561522 2.0617302 Q 10.684439950561522 2.10566145 10.668971200561522 2.1455708249999996 Q 10.653502450561522 2.1854801999999998 10.625658700561523 2.2167270749999997 Q 10.597814950561522 2.2479739499999996 10.560071200561522 2.2659176999999997 Q 10.522327450561523 2.28386145 10.478396200561523 2.28386145 Z M 10.315664950561523 2.06111145 Q 10.315664950561523 2.0969989499999997 10.327421200561522 2.130102075 Q 10.339177450561523 2.1632051999999997 10.360833700561523 2.188883325 Q 10.382489950561522 2.2145614499999997 10.412499325561523 2.229720825 Q 10.442508700561522 2.2448802 10.478396200561523 2.2448802 Q 10.516139950561522 2.2448802 10.546149325561522 2.2291020749999997 Q 10.576158700561523 2.21332395 10.597505575561522 2.1870270749999996 Q 10.618852450561523 2.1607301999999997 10.629989950561523 2.12793645 Q 10.641127450561523 2.0951427 10.641127450561523 2.06111145 Q 10.641127450561523 2.02522395 10.629371200561522 1.9924301999999998 Q 10.617614950561522 1.9596364499999996 10.595649325561523 1.9336489499999998 Q 10.573683700561523 1.9076614499999998 10.543983700561522 1.8928114499999997 Q 10.514283700561522 1.8779614499999997 10.478396200561523 1.8779614499999997 Q 10.441271200561523 1.8779614499999997 10.411261825561523 1.8934301999999998 Q 10.381252450561522 1.9088989499999998 10.359905575561523 1.9351958249999996 Q 10.338558700561522 1.9614926999999998 10.327111825561524 1.9942864499999997 Q 10.315664950561523 2.0270802 10.315664950561523 2.06111145 Z M 10.793634823608398 2.2807676999999997 L 10.793634823608398 1.8414551999999997 L 10.979259823608398 1.8414551999999997 Q 11.007722323608398 1.8414551999999997 11.031234823608399 1.8532114499999999 Q 11.054747323608398 1.8649676999999998 11.072381698608398 1.8850770749999999 Q 11.090016073608398 1.9051864499999998 11.099606698608397 1.9296270749999997 Q 11.109197323608399 1.9540676999999997 11.109197323608399 1.9794364499999997 Q 11.109197323608399 2.0109926999999996 11.097131698608399 2.03883645 Q 11.085066073608399 2.0666801999999995 11.063100448608399 2.08586145 Q 11.041134823608399 2.1050427 11.011434823608399 2.1112301999999996 L 11.119097323608399 2.2807676999999997 L 11.070216073608398 2.2807676999999997 L 10.966884823608398 2.1186551999999996 L 10.836947323608397 2.1186551999999996 L 10.836947323608397 2.2807676999999997 L 10.793634823608398 2.2807676999999997 Z M 10.836947323608397 2.0802926999999998 L 10.980497323608398 2.0802926999999998 Q 11.006484823608398 2.0802926999999998 11.025666073608399 2.06606145 Q 11.044847323608398 2.0518302 11.055366073608399 2.0286270749999997 Q 11.065884823608398 2.00542395 11.065884823608398 1.9794364499999997 Q 11.065884823608398 1.9528301999999997 11.053819198608398 1.9302458249999996 Q 11.041753573608398 1.9076614499999998 11.021644198608398 1.8937395749999997 Q 11.001534823608399 1.8798176999999998 10.976784823608398 1.8798176999999998 L 10.836947323608397 1.8798176999999998 L 10.836947323608397 2.0802926999999998 Z M 11.225184548950196 2.2807676999999997 L 11.225184548950196 1.8414551999999997 L 11.268497048950195 1.8414551999999997 L 11.268497048950195 2.2807676999999997 L 11.225184548950196 2.2807676999999997 Z M 11.718010162353517 1.8798176999999998 L 11.561466412353518 1.8798176999999998 L 11.561466412353518 2.2807676999999997 L 11.518153912353517 2.2807676999999997 L 11.518153912353517 1.8798176999999998 L 11.361610162353516 1.8798176999999998 L 11.361610162353516 1.8414551999999997 L 11.718010162353517 1.8414551999999997 L 11.718010162353517 1.8798176999999998 Z M 11.813597973632815 1.8414551999999997 L 11.957147973632814 2.0778176999999998 L 12.101935473632814 1.8414551999999997 L 12.148960473632814 1.8414551999999997 L 11.978804223632814 2.1174177 L 11.978804223632814 2.2807676999999997 L 11.935491723632815 2.2807676999999997 L 11.935491723632815 2.1161801999999996 L 11.765954223632814 1.8414551999999997 L 11.813597973632815 1.8414551999999997 Z M 12.229051437377931 1.9577801999999997 L 12.229051437377931 1.8377426999999997 L 12.265557687377932 1.8377426999999997 L 12.265557687377932 1.9577801999999997 L 12.229051437377931 1.9577801999999997 Z M 12.287832687377932 1.9577801999999997 L 12.287832687377932 1.8377426999999997 L 12.32433893737793 1.8377426999999997 L 12.32433893737793 1.9577801999999997 L 12.287832687377932 1.9577801999999997 Z" fill="#006fbf" fill-rule="nonzero"></path></g><g clip-path="url(&quot;#SvgjsClipPath1009&quot;)"><g clip-path="url(&quot;#SvgjsClipPath1008&quot;)"><path d=" M 4.313518480228176 -6.5192978504554855 C 4.3536639300539886 -6.3499077668023025 4.454874505036756 -6.211600763499481 4.5899630967501635 -6.211600763499481 L 4.803309907111342 -6.211600763499481 C 4.9367045979882285 -6.211600763499481 5.032748775419568 -6.35007715688595 4.965246827083788 -6.5192978504554855 C 4.868054793113794 -6.7560184165689385 4.723053287303553 -6.970132789634526 4.539315461737866 -7.148243231059748 C 4.372127449172178 -7.317633314712913 4.10262782607998 -7.45594031801574 4.005736698230363 -7.45594031801574 L 3.8468487997636833 -7.45594031801574 C 3.749026026453977 -7.45594031801574 3.8371088699536235 -7.317463924629265 3.9769403840093176 -7.148243231059737 C 4.13662422664399 -6.967696321140571 4.2518844253731185 -6.7523157887393435 4.313518480228176 -6.519297850455491 Z" fill="#004a80" transform="matrix(1,0,0,1,0,0)" fill-rule="nonzero"></path></g><g clip-path="url(&quot;#SvgjsClipPath1008&quot;)"><path d=" M 3.50925436304289 -4.291648860332543 L 5.979046477748063 -4.291648860332543 C 6.1865006820637936 -4.302174918633629 6.374073162684573 -4.418324709343596 6.475952288144653 -4.599345947288546 C 6.6493230387636855 -4.966668343690459 6.750703003830113 -5.333990740092377 6.720466873898015 -5.701313136494295 C 6.703496155515288 -5.863988240325085 6.574724126807086 -5.99244205149941 6.4120075315655685 -6.009010223450293 L 4.5665025701642055 -6.009010223450293 C 4.429550687530616 -6.009010223450293 4.29717233715566 -5.870618525105645 4.23034794915447 -5.701313136494295 C 4.090685825182423 -5.333990740092377 3.8194923012536846 -4.966668343690459 3.476562076897827 -4.599345947288546 C 3.316488447845576 -4.430125253719018 3.322332405731607 -4.291648860332543 3.50925436304289 -4.291648860332543 Z" fill="#004a80" transform="matrix(1,0,0,1,0,0)" fill-rule="nonzero"></path></g><g clip-path="url(&quot;#SvgjsClipPath1008&quot;)"><path d=" M 4.611052162164991 -4.089651185576119 C 4.422351608975354 -4.089651185576119 4.1432814461567355 -3.951174792189644 3.9805822708078598 -3.781954098620115 C 3.7815489225153733 -3.572333870099305 3.573453204747449 -3.3627136415784946 3.3673901679833538 -3.1530934130576966 C 3.199101119873928 -2.98370332940452 3.24932527967709 -2.8453963261016995 3.4752916512704286 -2.8453963261016995 L 4.212138515161761 -2.8453963261016995 C 4.460908970184819 -2.856993055819596 4.69465011187793 -2.967823330913701 4.861071925637088 -3.1530934130576966 C 5.02766707290998 -3.362713641578507 5.1962949011867146 -3.572333870099317 5.35586035998801 -3.781954098620115 C 5.483495788020679 -3.951344182273298 5.42497151411851 -4.089651185576119 5.2361862658870395 -4.089651185576119 Z" fill="#006fbf" transform="matrix(1,0,0,1,0,0)" fill-rule="nonzero"></path></g><g clip-path="url(&quot;#SvgjsClipPath1008&quot;)"><path d=" M 5.101267064257286 -6.5192978504554855 C 5.17063230351326 -6.3499077668023025 5.296065660458441 -6.211600763499481 5.4307307769627196 -6.211600763499481 L 6.606721432724909 -6.211600763499481 C 6.740200818643617 -6.211600763499481 6.7850044957698765 -6.35007715688595 6.65491291152423 -6.5192978504554855 C 6.466617415892788 -6.759387068640422 6.244824859076697 -6.971196678583362 5.996324266280669 -7.148243231059748 C 5.766546617805147 -7.317633314712913 5.44580649440785 -7.45594031801574 5.349254146725541 -7.45594031801574 L 4.47342271919678 -7.45594031801574 C 4.375599945887073 -7.45594031801574 4.487566791181824 -7.317463924629265 4.656618094667693 -7.148243231059737 C 4.845404087545023 -6.970440616444571 4.996603352516633 -6.756572856124734 5.101267064257286 -6.5192978504554855 Z" fill="#006fbf" transform="matrix(1,0,0,1,0,0)" fill-rule="nonzero"></path></g><g clip-path="url(&quot;#SvgjsClipPath1008&quot;)"><path d=" M 6.092707223879342 -7.182205942832198 C 6.354076726071801 -7.005226862575824 6.590265187569556 -6.79365442408579 6.794829120621763 -6.553260562227928 C 6.932966733840924 -6.383870478574764 7.113113087806084 -6.245563475271936 7.247270034059402 -6.245563475271936 L 7.766958810707346 -6.245563475271936 C 7.89942185612413 -6.245563475271936 7.906282154512085 -6.384039868658411 7.730031772470953 -6.5532605622279405 C 7.4767892642292715 -6.792952827497326 7.197799829189074 -7.00388497416893 6.898157071650194 -7.182205942832198 C 6.621288979919071 -7.351596026485375 6.262351392657993 -7.489903029788195 6.16673069043577 -7.489903029788195 L 5.7806059947483535 -7.489903029788195 C 5.68363017185691 -7.489903029788195 5.853951900970178 -7.351426636401726 6.092707223879342 -7.182205942832198 Z" fill="#004a80" transform="matrix(1,0,0,1,0,0)" fill-rule="nonzero"></path></g><g clip-path="url(&quot;#SvgjsClipPath1008&quot;)"><path d=" M 1.9630616794566833 -2.8453963261017057 L 2.3236931675542944 -2.8453963261017057 C 2.5915072970108985 -2.863792657564077 2.845225232011298 -2.9722346879001336 3.043601023080297 -3.153093413057709 C 3.2582182590688746 -3.3627136415785186 3.4748681760612876 -3.572333870099329 3.6824557235782622 -3.781954098620127 C 3.848881480767513 -3.9513441822733038 3.8221178475503086 -4.08965118557613 3.6332479042770114 -4.08965118557613 L 3.3270753280738874 -4.08965118557613 C 3.1383747748842565 -4.08965118557613 2.833896099517666 -3.951174792189656 2.6401138438184284 -3.781954098620127 C 2.4029677267039773 -3.572333870099317 2.156081679779472 -3.362713641578507 1.9117364841097582 -3.153093413057709 C 1.7122796606081492 -2.98387271948818 1.7370953078633389 -2.8453963261017057 1.9630616794566833 -2.8453963261017057 Z" fill="#006fbf" transform="matrix(1,0,0,1,0,0)" fill-rule="nonzero"></path></g><g clip-path="url(&quot;#SvgjsClipPath1008&quot;)"><path d=" M 7.892646252778008 -4.089651185576119 L 6.204843459257741 -4.089651185576119 C 5.983056617828872 -4.070259927725647 5.779658105676673 -3.9584629821766795 5.644416367491207 -3.781615318452819 C 5.493151022788918 -3.571995089932009 5.33273861356936 -3.3623748614111992 5.1744435803954625 -3.1527546328904013 C 5.0446907763171245 -2.9833645492372183 5.126506186721611 -2.845057545934403 5.352303168231301 -2.845057545934403 L 7.340349885026828 -2.845057545934403 C 7.565977476452858 -2.845057545934403 7.803970543985579 -2.983533939320872 7.87299700307424 -3.1527546328904013 C 7.960063506071981 -3.362374861411211 8.049077995031718 -3.571995089932021 8.12911480955785 -3.781615318452819 C 8.192551395885966 -3.951005402105996 8.081516196051306 -4.089651185576119 7.892646252778008 -4.089651185576119 Z" fill="#004a80" transform="matrix(1,0,0,1,0,0)" fill-rule="nonzero"></path></g><g clip-path="url(&quot;#SvgjsClipPath1008&quot;)"><path d=" M 8.344155520755557 -5.701313136494295 C 8.273912362637137 -5.867388467846618 8.12148423931516 -5.98426718714353 7.94287041258117 -6.009010223450293 L 7.125393868870931 -6.009010223450293 C 6.988526681279162 -6.009010223450293 6.925937045369309 -5.870618525105645 6.944400564487518 -5.701313136494295 C 6.98979710690656 -5.333990740092377 6.903662249368929 -4.966668343690459 6.7455366062786855 -4.599345947288546 C 6.671089664513116 -4.429955863635364 6.746807031906084 -4.291648860332543 6.93364429417554 -4.291648860332543 L 8.027565454407775 -4.291648860332543 C 8.213894546426273 -4.291648860332543 8.404373695494264 -4.430125253719018 8.431730194004258 -4.599345947288546 C 8.504225454478878 -4.9677443629678555 8.473927468050201 -5.348989141907393 8.344155520755557 -5.701313136494295 Z" fill="#006fbf" transform="matrix(1,0,0,1,0,0)" fill-rule="nonzero"></path></g><g clip-path="url(&quot;#SvgjsClipPath1008&quot;)"><path d=" M 3.10881620528678 -2.677446058159581 L 1.7551353517724007 -2.677446058159581 C 1.4775832160173406 -2.657965733895262 1.2135663949924842 -2.5501032125232195 1.0017729547248928 -2.3696642761617506 C 0.6361909820718495 -2.0426085624102246 0.31143507226632483 -1.6726086374995681 0.03455557706523792 -1.2676970869559963 C -0.07554797730932605 -1.0983070033028195 0.08909918400156407 -0.9600000000000044 0.3658825806908596 -0.9600000000000044 L 1.9960927457690416 -0.9600000000000044 C 2.273384312709299 -0.9600000000000044 2.523488771223211 -1.0984763933864734 2.5865865773840198 -1.2676970869560025 C 2.7253170558959754 -1.6350194833579144 2.972118407778654 -2.0023418797598325 3.26736532358614 -2.3696642761617506 C 3.4019457450486037 -2.5389696647731004 3.336561172758473 -2.677446058159581 3.10881620528678 -2.677446058159581 Z" fill="#004a80" transform="matrix(1,0,0,1,0,0)" fill-rule="nonzero"></path></g><g clip-path="url(&quot;#SvgjsClipPath1008&quot;)"><path d=" M 7.346786708205648 -2.677446058159581 L 4.2898885635585575 -2.677446058159581 C 4.037482773551832 -2.6669129730568715 3.799705084244249 -2.5561329572948432 3.6292672373111676 -2.3696642761617506 C 3.349180733990638 -2.0023418797598387 3.1176244896367376 -1.6350194833579206 2.9940544236117503 -1.2676970869560025 C 2.9347678943331315 -1.0983070033028195 3.141339101348189 -0.9600000000000044 3.418207193079311 -0.9600000000000044 L 5.3089393068160815 -0.9600000000000044 C 5.50627875427204 -1.3665362007676327 4.89825304899895 -1.6444206330006725 4.89825304899895 -1.6444206330006725 C 5.632559061635472 -1.6444206330006725 5.688203704115543 -1.1509873193189577 5.682275051187679 -0.9600000000000044 L 6.037994226859356 -0.9600000000000044 C 6.404808453010317 -1.8617481103276958 5.865724511784079 -2.3842318233559245 5.865724511784079 -2.3842318233559245 C 6.434790497816935 -2.3462884446176133 6.434790497816935 -1.28404323002853 6.434790497816935 -1.28404323002853 C 6.472733876555246 -1.606561949304183 6.832857194401908 -1.9479676629071605 6.832857194401908 -1.9479676629071605 C 6.699986906835911 -1.6349316203341768 6.681988705379201 -1.2850165870132395 6.78204016930595 -0.9599999999999929 L 7.098799625737392 -0.9599999999999929 C 7.37617588771947 -0.9599999999999982 7.556152851600977 -1.0984763933864734 7.534301530809719 -1.2676970869559963 C 7.498340539100664 -1.639751581743032 7.5410776946288935 -2.01520946869626 7.6597348877549 -2.3696642761617506 C 7.709620267390754 -2.5389696647731004 7.574277590551859 -2.677446058159581 7.346786708205648 -2.677446058159581 Z" fill="#006fbf" transform="matrix(1,0,0,1,0,0)" fill-rule="nonzero"></path></g></g></g><defs><clipPath id="SvgjsClipPath1009"><path d=" M 0 -7.489903029788195 h 8.468741927282473 v 6.529903029788195 h -8.468741927282473 Z"></path></clipPath><clipPath id="SvgjsClipPath1008"><path d=" M 0 -7.489903029788195 L 8.468741927282473 -7.489903029788195 L 8.468741927282473 -0.96 L 0 -0.96 Z"></path></clipPath></defs></svg>